<?xml version="1.0" encoding="utf-8"?>
<!-- Generator: Adobe Illustrator 25.4.1, SVG Export Plug-In . SVG Version: 6.00 Build 0)  -->
<svg version="1.1" id="Layer_1" xmlns="http://www.w3.org/2000/svg" xmlns:xlink="http://www.w3.org/1999/xlink" x="0px" y="0px"
	 viewBox="0 0 190 68.1" style="enable-background:new 0 0 190 68.1;" xml:space="preserve">
<style type="text/css">
	.st0{fill:#010101;}
	.st1{fill:#96CA48;}
	.st2{fill:#92C256;}
	.st3{fill:#FFFFFF;}
	.st4{font-family:'MyriadPro-Bold';}
	.st5{font-size:7.4837px;}
</style>
<g>
	<polygon class="st0" points="21.1,3.1 25,0 26.9,2.6 28.7,0 32.3,3.1 32.3,11.3 21.1,11.3 	"/>
	<path class="st1" d="M19.9,12.2l-4.6,7.4c0,0-18.1,8.6-14.9,27s25.4,30.1,39.5,13.5c0,0-21,10.9-32-2.9s-0.7-31.7,8.6-35.9
		L19.9,12.2z"/>
	<path class="st0" d="M19.9,43v4.9h18.8c0,0,4-2,4.3-6.7s-4.2-5.7-4.2-5.7H24.2c0,0-1.2-2.8,1.2-3.3h17.7v-4.6H25.3
		c0,0-5.3,0.3-5.4,6.7c0,6.3,6.8,5.9,6.8,5.9h10.1c0,0,2.2,0,2.2,1.2c-0.1,1.2-0.8,1.4-1.7,1.5L19.9,43z"/>
	<path class="st0" d="M44.5,33.1c0,0,0.2-5.2,4.9-5.5c4.8-0.4,13.6,0,13.6,0s3.7,0.8,4,4l-2.5,4h3.1l-4.3,12v-7.3H48.6v7.3
		c0,0-4.2,0.1-4.1,0C44.5,47.4,44.5,33.1,44.5,33.1z"/>
	<path class="st0" d="M65.3,47.5l5.8-14h-3.4l2.5-6.1h19.8v5.3H71.4v2.5h18c0,0,0.8,4.5,0,4.5s-18.4,0-18.4,0v7.7
		C71,47.5,65.3,47.5,65.3,47.5z"/>
	<polygon class="st0" points="67.2,31.3 69.9,27.4 66.8,27.4 67.1,31.5 	"/>
	<polygon class="st0" points="91,27.4 91,47.5 113.6,47.5 113.6,42.9 95.2,42.9 95.2,39.9 113.6,39.9 113.6,35.1 95.2,35.1 
		95.2,32.3 113.6,32.3 113.6,27.4 	"/>
	<polygon class="st2" points="115.7,27.4 119.8,27.4 119.8,42.6 137.6,42.6 137.6,47.5 115.7,47.5 	"/>
	<rect x="139.3" y="27.4" class="st2" width="3.7" height="20.1"/>
	<polygon class="st2" points="144.4,47.5 148.6,47.5 148.6,33.6 163.6,47.5 166.9,36.2 164,36.2 168.6,27.4 163.3,27.4 163.3,41.7 
		148.7,27.7 144.4,27.7 	"/>
	<polygon class="st2" points="165.1,47.5 170.7,34.2 167.2,34.2 170.2,27.4 189.5,27.4 189.5,32.8 170.9,32.8 170.9,35 189.5,35 
		189.5,40 170.8,40 170.8,42.1 189.5,42.1 189.5,47.5 	"/>
	<path class="st3" d="M48.5,35h15c0,0,0-2.8-1.7-2.8H50.1C50.1,32.2,48.4,32.8,48.5,35z"/>
	<path class="st3" d="M31,5.4h-8.8c-0.1,0-0.2-0.1-0.2-0.2V4.7c0-0.1,0.1-0.2,0.2-0.2H31c0.1,0,0.2,0.1,0.2,0.2v0.5
		C31.2,5.3,31.1,5.4,31,5.4z"/>
	<path class="st3" d="M31,7.4h-8.8c-0.1,0-0.2-0.1-0.2-0.2V6.8c0-0.1,0.1-0.2,0.2-0.2H31c0.1,0,0.2,0.1,0.2,0.2v0.5
		C31.2,7.4,31.1,7.4,31,7.4z"/>
	<path class="st3" d="M31,8.6h-8.8c-0.1,0-0.2-0.1-0.2-0.2V7.9c0-0.1,0.1-0.2,0.2-0.2H31c0.1,0,0.2,0.1,0.2,0.2v0.5
		C31.2,8.5,31.1,8.6,31,8.6z"/>
	<path class="st3" d="M31,10.4h-8.8c-0.1,0-0.2-0.1-0.2-0.2V9.7c0-0.1,0.1-0.2,0.2-0.2H31c0.1,0,0.2,0.1,0.2,0.2v0.5
		C31.2,10.3,31.1,10.4,31,10.4z"/>
	<text transform="matrix(1.1846 0 0 1 20.4058 55.918)" class="st0 st4 st5">Smart Solution For a Smart  &amp;  Better World</text>
</g>
</svg>
