<?xml version="1.0" standalone="no"?>
<!DOCTYPE svg PUBLIC "-//W3C//DTD SVG 1.1//EN" "http://www.w3.org/Graphics/SVG/1.1/DTD/svg11.dtd" >
<svg xmlns="http://www.w3.org/2000/svg">
<metadata><json><![CDATA[{
	"version": "1.0",
	"copyright": "Nucleo",
	"license": "https://nucleoapp.com/license",
	"url": "https://nucleoapp.com/"
}]]></json></metadata>
<defs>
  <font id="Nucleo" horiz-adv-x="256">
    <font-face font-family="Nucleo"
      units-per-em="256" ascent="256"
      descent="0" />
    <missing-glyph horiz-adv-x="0" />
    <glyph glyph-name="bag-17"
      unicode="&#xEA02;"
      horiz-adv-x="256" d="M208 252H48C32.536 252 20 239.464 20 224V32C20 16.536 32.536 4 48 4H208C223.464 4 236 16.536 236 32V224C236 239.464 223.464 252 208 252zM128 100C94.916 100 68 126.916 68 160C68 162.208 69.788 164 72 164S76 162.208 76 160C76 131.328 99.328 108 128 108S180 131.328 180 160C180 162.208 181.788 164 184 164S188 162.208 188 160C188 126.916 161.084 100 128 100zM208 204H48C36.972 204 28 212.972 28 224S36.972 244 48 244H208C219.028 244 228 235.028 228 224S219.028 204 208 204z" />
    <glyph glyph-name="zoom"
      unicode="&#xEA04;"
      horiz-adv-x="256" d="M94.45 238.607C72.359 234.379 56.875 226.009 41.86 210.178C14.745 181.589 8.571 140.538 25.967 104.5C35.684 84.372 54.413 67.051 75.77 58.441C78.922 57.171 86.225 55.157 92 53.966C117.409 48.726 144.832 54.993 166.485 70.989L172.245 75.244L205.118 42.382L237.991 9.52L242.235 13.765L246.48 18.009L213.566 50.934L180.653 83.858L184.652 89.179C220.617 137.025 204.338 203.796 150.078 230.984C135.557 238.261 110.546 241.688 94.45 238.607M126.564 226.103C146.843 221.918 166.51 208.744 177.962 191.675C196.102 164.638 196.441 129.349 178.826 101.78C167.298 83.739 147.678 70.254 126.636 65.912C108.038 62.074 91.007 64.356 73.145 73.08C63.568 77.758 61.535 79.265 52.506 88.385C41.161 99.843 34.912 110.261 30.844 124.5C27.594 135.874 27.568 156.041 30.789 167.299C34.882 181.604 42.533 194.365 53.161 204.612C73.107 223.846 99.733 231.641 126.564 226.103" />
    <glyph glyph-name="small-right"
      unicode="&#xEA05;"
      horiz-adv-x="256" d="M101.481 177.98L97.555 173.96L121.52 149.98L145.484 126L121.503 102.003L97.523 78.007L101.768 73.762L106.012 69.517L134.252 97.756L162.491 125.996L134.502 153.998C119.108 169.399 106.264 182 105.96 182C105.655 182 103.64 180.191 101.481 177.98" />
    <glyph glyph-name="arrow-right"
      unicode="&#xEA06;"
      horiz-adv-x="256" d="M169.48 201.979L165.553 197.958L198.521 164.979L231.489 132L122.744 132L14 132L14 126L14 120L122.744 120L231.489 120L198.505 87.005L165.52 54.009L169.767 49.763L174.013 45.516L214.253 85.757L254.494 125.997L214.502 165.998C192.506 187.999 174.261 206 173.958 206C173.654 206 171.639 204.191 169.48 201.979" />
    <glyph glyph-name="small-down"
      unicode="&#xEA0A;"
      horiz-adv-x="256" d="M77.478 153.977L73.55 149.955L101.775 121.73L130 93.504L158.242 121.746L186.483 149.988L182.238 154.232L177.993 158.477L153.997 134.497L130 110.516L106.242 134.258C93.176 147.316 82.242 158 81.945 158C81.649 158 79.638 156.19 77.478 153.977" />
    <glyph glyph-name="triangle-down"
      unicode="&#xEA0C;"
      horiz-adv-x="256" d="M243.572 205.804C242.892 207.152 241.508 208 240 208H16C14.492 208 13.108 207.152 12.428 205.804C11.748 204.456 11.88 202.84 12.78 201.628L124.78 49.628C125.536 48.604 126.732 48 128 48S130.464 48.604 131.22 49.628L243.22 201.628C244.116 202.84 244.248 204.456 243.572 205.804z" />
    <glyph glyph-name="arrow-down-2"
      unicode="&#xEA0D;"
      horiz-adv-x="256" d="M124 133.256L124 24.511L91.005 57.495L58.009 90.48L53.763 86.233L49.516 81.987L89.758 41.745L130 1.503L170.242 41.745L210.484 81.987L206.237 86.233L201.991 90.48L168.995 57.495L136 24.511L136 133.256L136 242L130 242L124 242L124 133.256" />
    <glyph glyph-name="triangle-right"
      unicode="&#xEA0E;"
      horiz-adv-x="256" d="M54.372 243.22C53.16 244.116 51.54 244.248 50.196 243.568C48.848 242.888 48 241.508 48 240V16C48 14.492 48.848 13.112 50.196 12.428C50.764 12.144 51.384 12 52 12C52.84 12 53.672 12.264 54.372 12.78L206.372 124.78C207.396 125.532 208 126.728 208 128S207.396 130.468 206.372 131.22L54.372 243.22z" />
    <glyph glyph-name="triangle-up"
      unicode="&#xEA0F;"
      horiz-adv-x="256" d="M131.22 206.372C129.712 208.42 126.292 208.42 124.784 206.372L12.784 54.372C11.884 53.156 11.752 51.54 12.432 50.196C13.108 48.848 14.492 48 16 48H240C241.508 48 242.892 48.848 243.572 50.196C244.252 51.544 244.12 53.16 243.22 54.372L131.22 206.372z" />
    <glyph glyph-name="triangle-left"
      unicode="&#xEA10;"
      horiz-adv-x="256" d="M205.804 243.572C204.46 244.248 202.844 244.112 201.628 243.224L49.628 131.224C48.604 130.468 48 129.272 48 128S48.604 125.532 49.628 124.78L201.628 12.78C202.328 12.264 203.16 12 204 12C204.616 12 205.236 12.144 205.804 12.428C207.152 13.112 208 14.492 208 16V240C208 241.508 207.152 242.888 205.804 243.572z" />
    <glyph glyph-name="small-up"
      unicode="&#xEA11;"
      horiz-adv-x="256" d="M101.504 130.004L73.521 102.008L77.764 97.765L82.007 93.523L106.003 117.503L130 141.484L153.997 117.503L177.993 93.523L182.236 97.765L186.479 102.008L158.496 130.004C143.106 145.402 130.282 158 130 158C129.718 158 116.894 145.402 101.504 130.004" />
    <glyph glyph-name="tail-top"
      unicode="&#xEA12;"
      horiz-adv-x="256" d="M89.505 210.005L49.519 170.01L53.764 165.765L58.009 161.52L91.005 194.505L124 227.489L124 118.744L124 10L130 10L136 10L136 118.744L136 227.489L168.995 194.505L201.991 161.52L206.236 165.765L210.481 170.01L170.495 210.005C148.503 232.002 130.28 250 130 250C129.72 250 111.497 232.002 89.505 210.005" />
    <glyph glyph-name="small-left"
      unicode="&#xEA13;"
      horiz-adv-x="256" d="M125.498 153.998L97.509 125.996L125.748 97.756L153.988 69.517L158.232 73.762L162.477 78.007L138.497 102.003L114.516 126L138.48 149.98L162.445 173.96L158.519 177.98C156.36 180.191 154.345 182 154.04 182C153.736 182 140.892 169.399 125.498 153.998" />
    <glyph glyph-name="arrow-left"
      unicode="&#xEA14;"
      horiz-adv-x="256" d="M43.498 167.998L3.506 127.997L43.747 87.757L83.987 47.516L88.233 51.763L92.48 56.009L59.495 89.005L26.511 122L135.256 122L244 122L244 128L244 134L135.256 134L26.511 134L59.479 166.979L92.447 199.958L88.52 203.979C86.361 206.191 84.346 208 84.042 208C83.739 208 65.494 189.999 43.498 167.998" />
    <glyph glyph-name="i-remove"
      unicode="&#xEA30;"
      horiz-adv-x="256" d="M77.481 177.98L73.555 173.96L97.52 149.98L121.484 126L97.503 102.003L73.523 78.007L77.765 73.765L82.007 69.523L106.003 93.503L130 117.484L153.997 93.503L177.993 69.523L182.235 73.765L186.477 78.007L162.497 102.003L138.516 126L162.497 149.997L186.477 173.993L182.235 178.235L177.993 182.477L153.997 158.497L130 134.516L106.242 158.258C93.176 171.316 82.242 182 81.945 182C81.649 182 79.64 180.191 77.481 177.98" />
    <glyph glyph-name="d-check"
      unicode="&#xEA31;"
      horiz-adv-x="256" d="M145.754 134.257L106.01 94.513L90.007 110.493L74.003 126.474L69.76 122.231L65.518 117.988L85.76 97.746L106.002 77.504L150.226 121.729L194.451 165.954L190.523 169.977C188.362 172.19 186.347 174 186.045 174C185.744 174 167.612 156.115 145.754 134.257" />
    <glyph glyph-name="single-content-03"
      unicode="&#xEA32;"
      horiz-adv-x="256" d="M28 126L28 0L130 0L232 0L232 126L232 252L130 252L28 252L28 126M220 126L220 12L130 12L40 12L40 126L40 240L130 240L220 240L220 126M76 190L76 184L130 184L184 184L184 190L184 196L130 196L76 196L76 190M76 150L76 144L130 144L184 144L184 150L184 156L130 156L76 156L76 150M76 110L76 104L130 104L184 104L184 110L184 116L130 116L76 116L76 110M76 70L76 64L98 64L120 64L120 70L120 76L98 76L76 76L76 70" />
    <glyph glyph-name="layout-25"
      unicode="&#xEA36;"
      horiz-adv-x="256" d="M4 126L4 16L130 16L256 16L256 126L256 236L130 236L4 236L4 126M244 194L244 164L130 164L16 164L16 194L16 224L130 224L244 224L244 194M76 90L76 28L46 28L16 28L16 90L16 152L46 152L76 152L76 90M244 90L244 28L166 28L88 28L88 90L88 152L166 152L244 152L244 90" />
    <glyph glyph-name="paper"
      unicode="&#xEA37;"
      horiz-adv-x="256" d="M24.234 137.25L24.5 22.5L27.311 16.776C30.685 9.905 36.43 4.731 43.708 2.008C48.927 0.055 51.411 0 134 0C216.589 0 219.073 0.055 224.292 2.008C231.57 4.731 237.315 9.905 240.689 16.776C243.316 22.126 243.522 23.464 243.842 37.25L244.183 52L158.092 52L72 52L72 39.212C72 27.936 71.734 25.897 69.75 21.97C63.121 8.847 44.879 8.847 38.25 21.97L36 26.424L36 133.212L36 240L118 240L200 240L200 152L200 64L206 64L212 64L212 158L212 252L117.984 252L23.967 252L24.234 137.25M64 190L64 184L118 184L172 184L172 190L172 196L118 196L64 196L64 190M64 146L64 140L118 140L172 140L172 146L172 152L118 152L64 152L64 146M64 102L64 96L118 96L172 96L172 102L172 108L118 108L64 108L64 102M232 33.468C232 23.166 228.826 17.245 221.5 13.881C217.742 12.155 213.294 12.043 147.903 12.022L78.306 12L80.852 17.145C82.832 21.147 83.492 24.256 83.821 31.145L84.245 40L158.122 40L232 40L232 33.468" />
    <glyph glyph-name="receipt-list-43"
      unicode="&#xEA38;"
      horiz-adv-x="256" d="M28 128C28 59.8 28.278 4 28.617 4C28.957 4 37.505 9.177 47.615 15.505L65.995 27.01L81.998 17.002L98 6.993L114 17L130 27.007L146 17L162 6.993L178.002 17.002L194.005 27.01L212.385 15.505C222.495 9.177 231.043 4 231.383 4C231.722 4 232 59.8 232 128L232 252L130 252L28 252L28 128M220 132.441C220 46.665 219.747 25.032 218.75 25.624C218.063 26.032 212.213 29.66 205.751 33.687L194.002 41.008L178.001 31.001L162 20.993L146 31L130 41.007L114 31L98 20.993L81.999 31.001L65.998 41.008L54.249 33.687C47.787 29.66 41.937 26.032 41.25 25.624C40.253 25.032 40 46.665 40 132.441L40 240L130 240L220 240L220 132.441M68 186L68 180L106 180L144 180L144 186L144 192L106 192L68 192L68 186M164 186L164 180L178 180L192 180L192 186L192 192L178 192L164 192L164 186M68 138L68 132L106 132L144 132L144 138L144 144L106 144L68 144L68 138M164 138L164 132L178 132L192 132L192 138L192 144L178 144L164 144L164 138M68 90L68 84L106 84L144 84L144 90L144 96L106 96L68 96L68 90M164 90L164 84L178 84L192 84L192 90L192 96L178 96L164 96L164 90" />
    <glyph glyph-name="screen-rotation"
      unicode="&#xEA39;"
      horiz-adv-x="256" d="M91.556 242.507C88.531 241.43 79.253 232.767 51.704 205.301C14.987 168.694 12.061 165.206 12.028 158C11.983 148.383 9.67 151.016 80.837 79.643C150.084 10.194 152.48 8.037 160.384 8.01C169.011 7.981 169.635 8.487 208.252 46.892C248.477 86.896 248.83 87.346 247.677 97.076C247.348 99.86 246.183 103.569 245.089 105.319C243.995 107.069 213.04 138.499 176.3 175.163C118.965 232.381 108.933 241.98 105.5 242.908C100.233 244.331 96.364 244.22 91.556 242.507M168 234.145L168 228L174.34 228C182.168 228 194.442 224.95 201.325 221.295C209.12 217.155 222.022 203.846 225.845 196C229.505 188.491 231.958 177.999 231.983 169.75L232 164L238.151 164L244.302 164L243.702 173.75C242.545 192.563 236.649 205.532 223.091 219.091C209.503 232.678 196.408 238.637 177.75 239.723L168 240.291L168 234.145M108.255 226.249L113.033 221.543L73.79 182.29L34.546 143.037L30.691 146.768C25.69 151.609 23.718 155.441 24.47 158.861C24.873 160.696 36.324 172.798 59.783 196.179C78.877 215.211 95.175 231.037 96 231.349C99.325 232.606 103.612 230.822 108.255 226.249M165.754 90.254L126.509 51L84.755 92.745L43 134.491L82.246 173.746L121.491 213L163.245 171.255L205 129.509L165.754 90.254M236 94.931C236 91.794 233.23 88.761 200.234 55.766C167.289 22.82 164.202 20 161.081 20C158.107 20 156.302 21.372 146.321 31.22L134.949 42.44L174.225 81.738L213.5 121.036L224.75 109.683C234.652 99.692 236 97.924 236 94.931M16.298 78.25C17.455 59.437 23.351 46.468 36.909 32.909C50.497 19.322 63.592 13.363 82.25 12.277L92 11.709L92 17.855L92 24L85.66 24C77.786 24 65.505 27.065 58.705 30.728C52.171 34.247 41.095 44.619 36.917 51.129C31.774 59.145 28.901 68.317 28.268 78.75L27.706 88L21.702 88L15.698 88L16.298 78.25" />
    <glyph glyph-name="mobile-chat"
      unicode="&#xEA3A;"
      horiz-adv-x="256" d="M122.684 250.567C116.538 248.349 111.949 243.799 109.506 237.5C108.152 234.011 107.989 225.611 108.227 171.793L108.5 110.087L130.263 127.043L152.026 144L194.335 144C242.576 144 243.037 144.062 249.865 151.469C252.056 153.846 254.33 157.525 254.919 159.645C255.588 162.057 255.983 176.794 255.972 199C255.954 238.149 255.836 238.987 249.414 245.343C242.905 251.785 246.078 251.478 183.5 251.722C137.175 251.903 125.785 251.687 122.684 250.567M240.234 237.083L243.5 234.166L243.786 198.639L244.073 163.113L241.119 159.806L238.165 156.5L192.966 156.22L147.767 155.94L134.392 145.47C127.036 139.712 120.776 135 120.481 135C120.187 135 120.07 157.312 120.223 184.583L120.5 234.165L123.766 237.083L127.032 240L182 240L236.968 240L240.234 237.083M40.581 233.986C34.845 231.746 29.712 227.142 26.662 221.5L24.5 217.5L24.5 118L24.5 18.5L26.662 14.5C29.536 9.184 34.491 4.569 40 2.079C44.369 0.103 46.292 0.044 106 0.044C165.708 0.044 167.631 0.103 172 2.079C177.509 4.569 182.464 9.184 185.338 14.5C187.474 18.453 187.503 19.195 187.781 77.25L188.061 136L182.031 136L176 136L176 94L176 52L106 52L36 52L36 122L36 192L68 192L100 192L100 198L100 204L68 204L36 204L36.004 208.75C36.008 214.429 38.6 219.176 43.241 222.005C46.278 223.857 48.322 223.993 73.25 223.996L100 224L100 230L100 236L72.75 235.953C48.318 235.911 44.991 235.708 40.581 233.986M140 214L140 208L182 208L224 208L224 214L224 220L182 220L140 220L140 214M140 182L140 176L164 176L188 176L188 182L188 188L164 188L140 188L140 182M175.996 31.25C175.992 21.291 174.365 17.413 168.759 13.995C165.603 12.071 163.611 12.007 106 12.007C48.389 12.007 46.397 12.071 43.241 13.995C37.635 17.413 36.008 21.291 36.004 31.25L36 40L106 40L176 40L175.996 31.25" />
    <glyph glyph-name="phone-heartbeat"
      unicode="&#xEA3B;"
      horiz-adv-x="256" d="M58.684 250.565C52.77 248.434 49.044 244.899 45.967 238.5C44.166 234.755 44.043 231.872 44.022 193.25L44 152L50 152L56 152L56 180L56 208L130 208L204 208L204 180L204 152L210 152L216 152L215.978 193.25C215.954 238.784 215.941 238.882 209.414 245.343C202.841 251.848 207.364 251.478 131.5 251.72C75.056 251.9 61.806 251.69 58.684 250.565M200.195 237.117C203.152 234.475 203.455 233.641 203.824 227.117L204.226 220L130 220L55.774 220L56.176 227.117C56.545 233.641 56.848 234.475 59.805 237.117L63.032 240L130 240L196.968 240L200.195 237.117M88.407 158.599L70.678 132L41.339 132L12 132L12 126L12 120L44.75 120.024L77.5 120.047L91.4 141.024C99.045 152.561 105.57 161.989 105.9 161.976C106.23 161.963 116.85 144.596 129.5 123.382C142.15 102.167 152.817 84.614 153.205 84.374C153.593 84.134 160.015 92.051 167.476 101.969L181.042 120L214.521 120L248 120L248 126L248 132L211.513 132L175.027 132L164.857 118.456C159.264 111.007 154.365 105.269 153.97 105.706C153.575 106.143 142.793 124.05 130.01 145.5C117.226 166.95 106.625 184.657 106.452 184.849C106.278 185.041 98.158 173.228 88.407 158.599M44.006 59.75C44.009 34.238 44.403 18.089 45.081 15.645C45.67 13.525 47.944 9.846 50.135 7.469C57.242 -0.241 54.663 0 130 0C205.337 0 202.758 -0.241 209.865 7.469C212.056 9.846 214.33 13.525 214.919 15.645C215.597 18.089 215.991 34.238 215.994 59.75L216 100L210 100L204 100L204 72L204 44L130 44L56 44L56 72L56 100L50 100L44 100L44.006 59.75M204 25.516C204 19.764 203.67 18.662 201.082 15.766L198.164 12.5L130 12.5L61.836 12.5L58.918 15.766C56.33 18.662 56 19.764 56 25.516L56 32L130 32L204 32L204 25.516" />
    <glyph glyph-name="phone-button"
      unicode="&#xEA3C;"
      horiz-adv-x="256" d="M56.581 249.986C50.845 247.746 45.712 243.142 42.662 237.5L40.5 233.5L40.5 126L40.5 18.5L42.662 14.5C45.536 9.184 50.491 4.569 56 2.079C60.387 0.095 62.247 0.044 130 0.044C197.753 0.044 199.613 0.095 204 2.079C209.509 4.569 214.464 9.184 217.338 14.5L219.5 18.5L219.5 126L219.5 233.5L217.284 237.643C216.066 239.921 213.201 243.384 210.918 245.338C202.912 252.191 205.199 252.005 129.572 251.953C64.874 251.909 61.256 251.811 56.581 249.986M200.759 238.005C202.552 236.912 204.912 234.552 206.005 232.759C207.954 229.562 207.993 227.516 207.993 126C207.993 24.484 207.954 22.438 206.005 19.241C204.912 17.448 202.552 15.088 200.759 13.995C197.592 12.064 195.594 12.007 130 12.007C64.406 12.007 62.408 12.064 59.241 13.995C57.448 15.088 55.088 17.448 53.995 19.241C52.046 22.438 52.007 24.484 52.007 126C52.007 227.516 52.046 229.562 53.995 232.759C55.088 234.552 57.448 236.912 59.241 238.005C62.408 239.936 64.406 239.993 130 239.993C195.594 239.993 197.592 239.936 200.759 238.005M116 218L116 212L130 212L144 212L144 218L144 224L130 224L116 224L116 218M122.684 70.611C107.522 64.966 103.257 45.956 114.607 34.607C125.583 23.631 143.521 27.113 150.121 41.5C154.725 51.535 149.968 64.346 139.658 69.677C135.49 71.832 127.191 72.289 122.684 70.611M136.977 56.476C140.789 52.666 140.452 46.686 136.211 42.898C131.02 38.259 124.41 39.51 121.479 45.685C118.933 51.051 121.398 57.144 127 59.331C129.675 60.375 134.44 59.011 136.977 56.476" />
    <glyph glyph-name="b-meeting"
      unicode="&#xEA3D;"
      horiz-adv-x="256" d="M108 186.881L108 121.763L111.75 124.594C113.813 126.152 124.664 134.755 135.864 143.713L156.228 160L206.114 160L256 160L256 206L256 252L182 252L108 252L108 186.881M244 206L244 172L197.931 172L151.863 172L137.181 160.355C129.107 153.95 121.938 148.27 121.25 147.733C120.254 146.954 120 156.225 120 193.378L120 240L182 240L244 240L244 206M49.792 138.657C37.34 135.149 28 122.878 28 110.027C28 94.208 42.195 80 58 80C73.792 80 88 94.208 88 110C88 120.798 80.288 132.773 70.563 137.075C64.784 139.631 55.704 140.323 49.792 138.657M193.792 138.657C177.027 133.933 167.951 115.898 174.086 99.499C178.236 88.407 190.272 80 202 80C217.792 80 232 94.208 232 110C232 120.798 224.288 132.773 214.563 137.075C208.784 139.631 199.704 140.323 193.792 138.657M66.03 125.75C79.153 119.121 79.153 100.879 66.03 94.25C63.58 93.012 59.967 92 58 92C56.033 92 52.42 93.012 49.97 94.25C36.847 100.879 36.847 119.121 49.97 125.75C52.42 126.988 56.033 128 58 128C59.967 128 63.58 126.988 66.03 125.75M210.03 125.75C223.153 119.121 223.153 100.879 210.03 94.25C207.58 93.012 203.967 92 202 92C200.033 92 196.42 93.012 193.97 94.25C180.847 100.879 180.847 119.121 193.97 125.75C196.42 126.988 200.033 128 202 128C203.967 128 207.58 126.988 210.03 125.75M41.795 66.519C26.146 63.959 11.324 56.417 6.959 48.794C4.636 44.737 4.482 43.492 4.171 26.25L3.841 8L58 8L112.159 8L111.829 26.25C111.472 46.044 110.978 48.093 105.241 53.537C100.28 58.246 87.849 63.724 77 65.982C68.089 67.837 51.402 68.091 41.795 66.519M185.795 66.519C170.146 63.959 155.324 56.417 150.959 48.794C148.636 44.737 148.482 43.492 148.171 26.25L147.841 8L202 8L256.159 8L255.829 26.25C255.472 46.044 254.978 48.093 249.241 53.537C244.28 58.246 231.849 63.724 221 65.982C212.089 67.837 195.402 68.091 185.795 66.519M77.48 53.563C86.558 51.047 94.805 47.02 97.542 43.768C99.809 41.074 100 40.035 100 30.423L100 20L58 20L16 20L16 30.423C16 40.016 16.195 41.078 18.442 43.748C21.546 47.438 32.889 52.691 41.694 54.517C50.405 56.323 69.345 55.818 77.48 53.563M221.48 53.563C230.558 51.047 238.805 47.02 241.542 43.768C243.809 41.074 244 40.035 244 30.423L244 20L202 20L160 20L160 30.423C160 40.016 160.195 41.078 162.442 43.748C165.546 47.438 176.889 52.691 185.694 54.517C194.405 56.323 213.345 55.818 221.48 53.563" />
    <glyph glyph-name="file-download-94"
      unicode="&#xEA3F;"
      horiz-adv-x="256" d="M124 201.263L124 156.525L109.001 171.499L94.002 186.473L89.76 182.23L85.518 177.988L107.759 155.747L130 133.506L152.241 155.747L174.482 177.988L170.24 182.23L165.998 186.473L150.999 171.499L136 156.525L136 201.263L136 246L130 246L124 246L124 201.263M29.22 125.727L4 79.454L4 39.727L4 0L130 0L256 0L256 39.727L256 79.454L230.78 125.727L205.559 172L196.78 172L188 172L188 166L188 160L193.27 160L198.539 160L219.141 122.25L239.743 84.5L184.871 84.242C154.692 84.099 105.308 84.099 75.129 84.242L20.257 84.5L40.859 122.25L61.461 160L66.73 160L72 160L72 166L72 172L63.22 172L54.441 172L29.22 125.727M244 42L244 12L130 12L16 12L16 42L16 72L130 72L244 72L244 42M164 42L164 36L190 36L216 36L216 42L216 48L190 48L164 48L164 42" />
    <glyph glyph-name="phone"
      unicode="&#xEA40;"
      horiz-adv-x="256" d="M166.888 100.712L147.98 77.112A199.55600000000004 199.55600000000004 0 0 0 77.08 147.972L100.716 166.88A16.064 16.064 0 0 1 105.356 185.936L83.812 234.452A16.068 16.068 0 0 1 65.088 243.484L24.072 232.844A16.16 16.16 0 0 1 12.152 215A238.30399999999997 238.30399999999997 0 0 1 215 12.152A16.156 16.156 0 0 1 232.844 24.072L243.484 65.084A16.084 16.084 0 0 1 234.456 83.812L185.948 105.356A16.056 16.056 0 0 1 166.888 100.712z" />
    <glyph glyph-name="pen-tool"
      unicode="&#xEA41;"
      horiz-adv-x="256" d="M112.8 198.4L46.4 172C45.2 171.6 44 170.4 44 168.8L22.4 38.4C21.6 34.4 26.4 32 29.2 34.8L87.6 93.2C82.4 100.8 83.2 111.6 90 118.4C93.6 122 98.8 124.4 104 124.4C110.4 124.4 116.8 121.2 120.4 115.6C125.2 108.8 125.2 99.6 120.4 92.8C116.4 87.2 110.4 84 104 84C100 84 96.4 85.2 92.8 87.2L34.8 29.2C32 26.4 34.4 21.6 38.4 22.4L168.8 44C170 44.4 171.2 45.2 172 46.4L198.4 112.8L112.8 198.4zM242.8 138.8L138.8 242.8C137.2 244.4 134.8 244.4 133.2 242.8L109.2 218.8C107.6 217.2 107.6 214.8 109.2 213.2L213.2 109.2C214 108.4 215.2 108 216 108S218 108.4 218.8000000000001 109.2L242.8000000000001 133.2C244.4 134.8 244.4 137.2 242.8 138.8z" />
    <glyph glyph-name="pin-3"
      unicode="&#xEA42;"
      horiz-adv-x="256" d="M128 252C82.776 252 36 217.444 36 159.62C36 99.04 121.532 12.812 125.172 9.172C125.92 8.42 126.94 8 128 8S130.08 8.42 130.828 9.172C134.468 12.812 220 99.04 220 159.62C220 217.444 173.224 252 128 252zM128 128C110.328 128 96 142.328 96 160S110.328 192 128 192S160 177.672 160 160S145.672 128 128 128z" />
    <glyph glyph-name="paper-diploma"
      unicode="&#xEA43;"
      horiz-adv-x="256" d="M24.234 137.25L24.5 22.5L27.311 16.776C30.685 9.905 36.43 4.731 43.708 2.008C48.927 0.055 51.411 0 134 0C216.589 0 219.073 0.055 224.292 2.008C231.57 4.731 237.315 9.905 240.689 16.776C243.316 22.126 243.522 23.464 243.842 37.25L244.183 52L228.092 52L212 52L212 66L212 80L206 80L200 80L200 66L200 52L136 52L72 52L72 39.212C72 27.936 71.734 25.897 69.75 21.97C63.121 8.847 44.879 8.847 38.25 21.97L36 26.424L36 133.212L36 240L118.04 240L200.081 240L199.79 231.826L199.5 223.653L193.773 222.355C177.127 218.582 162.243 203.974 157.833 187.081C153.513 170.533 157.989 151.951 169.065 140.452L172 137.405L172 104.202C172 85.941 172.259 71 172.576 71C172.894 71 180.062 75.952 188.506 82.004C196.95 88.057 204.478 93.246 205.233 93.536C205.993 93.827 213.824 88.905 222.742 82.532C231.615 76.189 239.129 71 239.438 71C239.747 71 240 85.941 240 104.202L240 137.405L242.935 140.452C250.633 148.445 256 162.225 256 174C256 196.089 240.089 216.82 219.081 222.104L212.5 223.76L212.223 237.88L211.945 252L117.956 252L23.967 252L24.234 137.25M214.201 210.877C221.026 209.43 225.416 207.167 231 202.215C240.885 193.449 245.397 180.77 243.196 167.94C241.612 158.702 238.953 153.724 231.931 146.853C224.216 139.304 217.56 136.697 206 136.697C194.44 136.697 187.782 139.305 180.075 146.851C173.731 153.062 171.366 156.956 169.356 164.5C164.919 181.153 173.324 199.789 189 208.054C195.641 211.555 205.69 212.681 214.201 210.877M64 190L64 184L104 184L144 184L144 190L144 196L104 196L64 196L64 190M64 146L64 140L104 140L144 140L144 146L144 152L104 152L64 152L64 146M206 124.653C214.223 124.653 217.747 125.113 222.25 126.773L228 128.892L228 111.396C228 97.276 227.749 94.055 226.697 94.7C225.98 95.14 221.03 98.571 215.697 102.325L206 109.149L196.303 102.325C190.97 98.571 186.02 95.14 185.303 94.7C184.251 94.055 184 97.276 184 111.396L184 128.892L189.75 126.773C194.253 125.113 197.777 124.653 206 124.653M64 102L64 96L94 96L124 96L124 102L124 108L94 108L64 108L64 102M232 33.468C232 23.166 228.826 17.245 221.5 13.881C217.742 12.155 213.294 12.043 147.903 12.022L78.306 12L80.852 17.145C82.832 21.147 83.492 24.256 83.821 31.145L84.245 40L158.122 40L232 40L232 33.468" />
    <glyph glyph-name="trophy"
      unicode="&#xEA44;"
      horiz-adv-x="256" d="M52 240L52 232L34 232L16 232L16.017 205.75C16.03 186.993 16.438 177.595 17.449 172.826C21.315 154.586 34.157 140.861 51 136.968L56.5 135.697L60.697 127.098C70.323 107.377 87.656 93.117 109.709 86.776C115.918 84.991 120.038 84.536 130 84.536C139.962 84.536 144.082 84.991 150.291 86.776C172.431 93.142 189.798 107.473 199.303 127.219C202.563 133.991 204.058 136.076 206 136.556C216.232 139.087 219.56 140.514 225.146 144.768C232.5 150.369 238.02 158.038 241.148 167C243.264 173.065 243.441 175.458 243.787 202.75L244.158 232L226.079 232L208 232L208 240L208 248L130 248L52 248L52 240M195.786 192.75L195.455 149.5L192.738 141.422C185.137 118.819 166.672 102.318 143.66 97.565C113.478 91.33 83.918 105.905 70.42 133.675C64.561 145.729 64 151.185 64 196.088L64 236L130.058 236L196.116 236L195.786 192.75M52.191 184.75C52.361 165.362 52.481 149.406 52.458 149.291C52.435 149.176 50.139 150.137 47.356 151.427C38.095 155.717 31.52 164.506 29.124 175.799C28.506 178.714 28 189.851 28 200.549L28 220L39.941 220L51.882 220L52.191 184.75M232 200.549C232 189.851 231.494 178.714 230.876 175.799C228.481 164.514 222.161 155.694 213.398 151.407C210.393 149.936 207.836 148.905 207.717 149.116C207.598 149.327 207.639 165.362 207.809 184.75L208.118 220L220.059 220L232 220L232 200.549M124 62L124 48L116.25 47.992C86.778 47.964 70.132 35.485 68.326 12.067L67.704 4L130 4L192.296 4L191.661 12.25C189.877 35.429 173.073 47.964 143.75 47.992L136 48L136 62L136 76L130 76L124 76L124 62M161.177 34.143C169.423 31.459 178.915 22.454 178.984 17.25C178.996 16.267 168.542 16 130 16C96.455 16 81 16.331 81 17.05C81 18.731 84.048 24.296 86.367 26.847C89.138 29.896 95.227 33.027 101.5 34.628C108.034 36.296 155.755 35.908 161.177 34.143" />
    <glyph glyph-name="goal-65"
      unicode="&#xEA45;"
      horiz-adv-x="256" d="M89.45 250.606C48.329 242.742 17.832 214.85 7.33 175.5C4.983 166.706 4.661 163.631 4.661 150C4.661 136.369 4.983 133.294 7.33 124.5C17.749 85.462 49.439 56.378 88.926 49.615C94.111 48.727 100.073 48 102.176 48L106 48L106 53.853L106 59.707L98.75 60.325C81.811 61.769 63.639 68.966 50.016 79.625C36.118 90.499 23.788 109.448 18.863 127.5C15.734 138.969 15.734 161.031 18.863 172.5C25.799 197.924 43.082 219.062 66.264 230.473C80.54 237.501 88.709 239.319 106 239.319C123.291 239.319 131.46 237.501 145.736 230.473C173.824 216.647 192.748 188.936 195.6 157.455L196.276 150L202.282 150L208.288 150L207.625 157.946C203.994 201.478 173.432 237.721 131.119 248.671C119.189 251.759 100.108 252.645 89.45 250.606M94.5 202.83C79.825 200.051 64.387 187.885 57.581 173.735C48.666 155.2 50.83 134.027 63.337 117.41C70.504 107.888 82.773 99.852 93.658 97.55C97.087 96.824 96.69 96.153 98.536 105.802C99.043 108.452 98.801 108.673 94.056 109.889C87.828 111.485 78.394 117.485 74.297 122.456C60.325 139.407 60.88 163.477 75.591 178.58C87.945 191.263 104.967 195.1 121.477 188.923C132.672 184.734 143.235 173.166 146.111 161.944C147.327 157.199 147.548 156.957 150.198 157.464C159.836 159.308 159.172 158.917 158.483 162.342C157.581 166.828 151.814 178.735 148.109 183.764C144.48 188.689 134.849 196.076 128.134 199.086C118.303 203.491 105.513 204.915 94.5 202.83M107.244 146.39C107.547 144.8 111.747 113.575 116.576 77C121.406 40.425 125.519 10.296 125.716 10.047C125.912 9.798 134.157 17.668 144.037 27.537L162.002 45.481L184.004 23.496L206.006 1.511L230.247 25.753L254.489 49.994L232.504 71.996L210.519 93.998L228.455 111.955C240.202 123.716 245.893 130.073 244.946 130.378C244.151 130.634 214.25 134.719 178.5 139.457C142.75 144.195 111.969 148.343 110.097 148.676C106.786 149.264 106.709 149.201 107.244 146.39M173.786 127.839L221.073 121.599L207.297 107.797L193.522 93.995L215.505 71.995L237.488 49.995L221.746 34.254L206.005 18.512L184.005 40.495L162.005 62.478L148.002 48.502C140.301 40.816 134 35.213 134 36.052C134 37.626 122.529 124.486 121.415 131.353C120.797 135.158 120.825 135.198 123.645 134.642C125.215 134.333 147.779 131.271 173.786 127.839" />
    <glyph glyph-name="single-03"
      unicode="&#xEA46;"
      horiz-adv-x="256" d="M115.365 250.572C100.807 247.251 90.072 241.019 79.209 229.583C71.167 221.117 66.145 212.659 62.832 202C60.906 195.807 60.504 192.321 60.521 182C60.544 167.658 62.61 159.102 68.696 148.132C72.979 140.415 84.157 128.418 91.781 123.358C96.592 120.164 97.102 119.539 95.436 118.881C94.371 118.461 89.608 116.598 84.851 114.741C70.95 109.314 59.958 101.898 47.442 89.5C35.67 77.839 30.287 70.475 24.051 57.5C16.708 42.222 13.228 28.401 12.278 10.75L11.7 0L17.707 0L23.713 0L24.265 10.25C25.722 37.274 35.167 59.532 53.247 78.546C67.637 93.681 83.915 103.406 103.794 108.744C112.4 111.055 115.37 111.35 130 111.35C144.63 111.35 147.6 111.055 156.206 108.744C167.466 105.72 180.038 100.071 189.119 93.955C202.91 84.666 217.666 67.746 225.272 52.5C230.855 41.31 236 18.588 236 5.122L236 0L242.148 0L248.295 0L247.618 9.75C246.286 28.938 242.67 43.8 235.999 57.5C222.936 84.33 199.003 106.204 171.883 116.102C167.277 117.783 163.363 119.303 163.186 119.481C163.009 119.658 165.327 121.438 168.338 123.436C175.856 128.426 187.047 140.46 191.304 148.132C197.419 159.154 199.472 167.664 199.472 182C199.472 192.246 199.054 195.852 197.154 202C193.557 213.642 188.672 221.51 179.091 231.091C164.956 245.225 152.081 250.888 132.5 251.582C125.314 251.837 119.373 251.487 115.365 250.572M144.415 238.022C155.398 235.213 161.347 231.69 170.589 222.523C182.469 210.74 187.936 197.817 187.983 181.41C188.004 173.829 184.921 161.502 181.295 154.675C177.755 148.01 163.99 134.245 157.325 130.705C150.338 126.995 138.134 124 130 124C121.82 124 109.607 127.01 102.705 130.728C96.171 134.247 85.095 144.619 80.917 151.129C70.321 167.641 69.265 190.086 78.231 208.208C82.018 215.864 95.072 229.257 102.691 233.303C114.82 239.745 130.668 241.538 144.415 238.022" />
    <glyph glyph-name="wallet-43"
      unicode="&#xEA47;"
      horiz-adv-x="256" d="M20.581 237.986C14.845 235.746 9.712 231.142 6.662 225.5C4.5 221.5 4.5 221.49 4.189 134.5C3.862 43.25 3.952 41.004 8.265 32.502C11.459 26.206 20.973 17.553 27.672 14.851L33.5 12.5L136.75 12.223L240 11.946L240 43.973L240 76L248 76L256 76L256 106L256 136L248 136L240 136L240 167.982L240 199.965L133.25 200.232C16.887 200.524 23.119 200.203 18.73 206.136C14.035 212.482 16.119 221.663 23.241 226.005C26.42 227.944 28.434 227.993 105.25 227.996L184 228L184 220L184 212L190 212L196 212L196 226L196 240L110.75 239.953C29.109 239.908 25.292 239.825 20.581 237.986M20.346 189.5C23.457 188.2 37.535 188 125.968 188L228 188L228 162L228 136L208.538 136C185.426 136 181.137 134.926 173.14 127.136C157.505 111.908 163.142 85.703 183.708 78.008C188.407 76.25 191.498 76 208.538 76L228 76L228 50L228 24L132.25 24.022C38.122 24.044 36.424 24.078 32 26.079C26.491 28.569 21.536 33.184 18.662 38.5C16.509 42.484 16.499 42.798 16.225 116.75C16.074 157.588 16.132 191 16.353 191C16.575 191 18.371 190.325 20.346 189.5M244 106L244 88L217.212 88C191.418 88 190.258 88.084 185.97 90.25C172.847 96.879 172.847 115.121 185.97 121.75C190.258 123.916 191.418 124 217.212 124L244 124L244 106M190.5 112.792C187.537 111.093 186.068 108.822 186.032 105.886C185.99 102.427 190.462 98 194 98C197.538 98 202.01 102.427 201.968 105.886C201.931 108.914 200.408 111.19 197.316 112.837C194.614 114.276 193.069 114.266 190.5 112.792" />
    <glyph glyph-name="books"
      unicode="&#xEA48;"
      horiz-adv-x="256" d="M175.5 243.437C160.65 240.488 147.488 237.824 146.25 237.518C144.66 237.125 144 237.407 144 238.481C144 239.825 135.946 240 74 240L4 240L4 122L4 4L74 4L144 4L144.098 85.25L144.197 166.5L160.579 85.102C169.59 40.334 177.115 3.551 177.303 3.364C177.491 3.176 194.005 6.295 214 10.296C237.317 14.96 250.51 18.03 250.785 18.856C251.021 19.564 240.937 71.636 228.374 134.572C209.927 226.992 205.242 248.981 204.017 248.9C203.183 248.845 190.35 246.387 175.5 243.437M196.374 233.25C198.611 225.559 223.967 94.591 223.327 94.034C222.308 93.148 173.917 83.75 173.34 84.326C172.834 84.832 145.129 224.392 145.46 224.765C145.717 225.053 192.755 234.74 194.683 234.901C195.333 234.955 196.094 234.212 196.374 233.25M68 156L68 84L42 84L16 84L16 156L16 228L42 228L68 228L68 156M132 156L132 84L106 84L80 84L80 156L80 228L106 228L132 228L132 156M176.18 198.716C171.5 197.818 170.92 197.443 171.357 195.598C171.631 194.444 174.203 181.575 177.074 167C179.944 152.425 182.604 140.146 182.984 139.712C183.758 138.831 191.012 139.771 193.023 141.014C194.052 141.65 193.119 147.841 188.518 170.908C185.327 186.909 182.442 199.941 182.108 199.869C181.773 199.796 179.106 199.278 176.18 198.716M36 166L36 136L42 136L48 136L48 166L48 196L42 196L36 196L36 166M100 166L100 136L106 136L112 136L112 166L112 196L106 196L100 196L100 166M231.991 54.953C234.877 40.077 237.073 27.746 236.87 27.551C236.045 26.76 186.919 17.323 186.572 17.888C185.759 19.214 175.732 71.065 176.198 71.532C176.637 71.971 222.766 81.649 225.621 81.901C226.309 81.962 228.772 71.539 231.991 54.953M68 44L68 16L42 16L16 16L16 44L16 72L42 72L68 72L68 44M132 44L132 16L106 16L80 16L80 44L80 72L106 72L132 72L132 44" />
    <glyph glyph-name="chart-bar-32"
      unicode="&#xEA49;"
      horiz-adv-x="256" d="M96 126L96 16L130 16L164 16L164 126L164 236L130 236L96 236L96 126M152 126L152 28L130 28L108 28L108 126L108 224L130 224L152 224L152 126M188 86L188 16L222 16L256 16L256 86L256 156L222 156L188 156L188 86M244 86L244 28L222 28L200 28L200 86L200 144L222 144L244 144L244 86M4 54L4 16L38 16L72 16L72 54L72 92L38 92L4 92L4 54M60 54L60 28L38 28L16 28L16 54L16 80L38 80L60 80L60 54" />
    <glyph glyph-name="chart-pie-36"
      unicode="&#xEA4A;"
      horiz-adv-x="256" d="M140 194L140 136L198 136L256 136L255.996 142.75C255.982 165.766 247.376 190.12 232.303 209.801C212.939 235.081 178.871 251.983 147.25 251.997L140 252L140 194M162.329 238.449C203.44 231.258 235.349 199.345 242.515 158.255C243.332 153.57 244 149.347 244 148.869C244 148.39 223.377 148 198 148L152 148L152 194C152 219.3 152.338 239.999 152.75 239.997C153.162 239.995 157.473 239.299 162.329 238.449M96.215 218.453C48.255 209.69 13.3 174.25 5.422 126.4C1.177 100.615 7.358 72.498 22.251 49.842C37.889 26.055 63.596 8.457 91.5 2.435C102.432 0.076 125.568 0.076 136.5 2.435C181.201 12.081 215.131 47.86 222.465 93.085C223.305 98.263 223.994 105.537 223.996 109.25L224 116L172 116L120 116L120 168L120 220L111.75 219.892C107.213 219.832 100.222 219.185 96.215 218.453M108 155.5L108 104L160 104C188.775 104 212 103.612 212 103.131C212 99.703 208.618 84.19 206.545 78.113C191.202 33.124 144.39 5.379 97.628 13.558C61.115 19.945 31.743 45.516 20.705 80.524C9.676 115.505 18.655 152.456 44.516 178.522C60.951 195.087 84.787 206.611 103.25 206.921L108 207L108 155.5" />
    <glyph glyph-name="factory"
      unicode="&#xEA4B;"
      horiz-adv-x="256" d="M42.105 250.485C33.88 248.17 27.617 244.312 21.15 237.578C12.205 228.262 8 218.098 8 205.79L8 200L82 200L156 200L156 202.451C156 211.961 150.783 223.969 143.383 231.487C137.057 237.916 129.376 241.82 120.293 243.226C110.962 244.671 103.286 243.526 95.281 239.497L88.621 236.145L83.374 240.941C73.316 250.134 55.497 254.255 42.105 250.485M67.176 237.259C72.966 234.682 80.323 228.012 83.666 222.308C85.054 219.938 86.413 218 86.685 218C86.957 218 89.706 220.252 92.795 223.005C102.019 231.226 111.887 233.744 122.438 230.569C128.708 228.682 134.03 224.894 137.691 219.713C143.707 211.199 149.549 212 81.469 212C12.88 212 18.769 211.131 23.468 220.56C26.923 227.493 34.465 234.582 41.576 237.578C46.536 239.669 48.72 240.015 55 239.707C59.733 239.475 64.225 238.572 67.176 237.259M216.228 158.481C196.829 143.367 180.748 131 180.494 131C180.24 131 179.912 143.176 179.766 158.058L179.5 185.117L137.676 155.932C105.866 133.735 95.571 127.024 94.676 127.904C94.029 128.539 85.381 140.409 75.458 154.28L57.417 179.5L32.708 179.767L8 180.035L8 90.017L8 0L130 0L252 0L252 93C252 144.15 251.887 185.992 251.75 185.981C251.613 185.971 235.628 173.596 216.228 158.481M71.063 139.75C82.149 124.213 91.566 111.127 91.988 110.672C92.411 110.216 109.574 121.595 130.128 135.957L167.5 162.07L168 134.082L168.5 106.094L203.772 133.547C223.171 148.646 239.259 161 239.522 161C239.785 161 240 127.475 240 86.5L240 12L130 12L20 12L20 90L20 168L35.452 168L50.905 168L71.063 139.75M104 58L104 36L126 36L148 36L148 58L148 80L126 80L104 80L104 58M168 58L168 36L190 36L212 36L212 58L212 80L190 80L168 80L168 58M136 58L136 48L126 48L116 48L116 58L116 68L126 68L136 68L136 58M200 58L200 48L190 48L180 48L180 58L180 68L190 68L200 68L200 58" />
    <glyph glyph-name="payment"
      unicode="&#xEA4D;"
      horiz-adv-x="256" d="M139.648 250.973C135.673 249.782 130.624 246.16 128.47 242.955L126.654 240.253L122.577 242.104C114.486 245.779 104.846 243.741 98.25 236.961C96.463 235.124 95 233.244 95 232.784C95 232.325 93.537 232.733 91.75 233.691C87.481 235.979 76.64 236.046 72.479 233.809C68.077 231.443 63.973 227.065 61.879 222.5C60.45 219.386 60.039 216.008 60.022 207.25L60 196L36 196L12 196L12 138L12 80L35.818 80L59.636 80L60.76 71.599C63.31 52.539 70.373 38.445 84.409 24.409C94.089 14.73 103.431 8.487 113.51 4.964C137.145 -3.299 162.773 -1.019 183.49 11.188C192.674 16.599 207.432 31.367 212.783 40.5C217.936 49.295 221.789 60.752 223.24 71.599L224.364 80L236.182 80L248 80L248 138L248 196L224 196L200 196L199.978 211.25C199.96 223.891 199.642 227.184 198.121 230.5C192.964 241.741 180.088 246.948 169.423 242.104L165.346 240.253L163.53 242.955C158.756 250.059 148.304 253.568 139.648 250.973M152.234 237.084L155.5 234.168L155.811 215.084L156.121 196L146 196L135.879 196L136.189 215.084L136.5 234.168L139.766 237.084C144.046 240.905 147.954 240.905 152.234 237.084M121 228.456C123.41 226.05 123.512 225.422 123.822 210.98L124.144 196L114 196L103.856 196L104.178 210.898C104.464 224.123 104.725 226.046 106.5 228.016C110.68 232.656 116.613 232.835 121 228.456M185 228.456C187.41 226.05 187.512 225.422 187.822 210.98L188.144 196L178 196L167.856 196L168.178 210.898C168.464 224.123 168.725 226.046 170.5 228.016C174.68 232.656 180.613 232.835 185 228.456M88.234 221.084L91.5 218.168L91.838 207.084L92.177 196L82 196L71.823 196L72.162 207.084L72.5 218.168L75.766 221.084C77.819 222.917 80.134 224 82 224C83.866 224 86.181 222.917 88.234 221.084M236 138L236 92L230 92L224 92L224 128L224 164L219.25 163.985C213.263 163.967 202.79 161.532 199.223 159.329C194.477 156.4 186.913 148.645 184.786 144.528C181.376 137.931 180.808 135.063 180.14 121.085L179.5 107.669L173.462 106.441C165.805 104.883 155.866 100.364 149.741 95.657L144.983 92L84.491 92L24 92L24 138L24 184L130 184L236 184L236 138M44 158L44 152L66 152L88 152L88 158L88 164L66 164L44 164L44 158M123.5 163.123C118.818 161.892 114.779 159.467 111.362 155.835C106.007 150.144 104.54 146.308 104.54 138C104.54 129.693 106.006 125.859 111.362 120.162C116.678 114.508 121.479 112.546 130 112.546C135.749 112.546 138.434 113.046 141.5 114.686C146.218 117.209 151.048 122.117 153.618 127C156.171 131.851 156.171 144.149 153.618 149C151.067 153.847 146.202 158.814 141.762 161.102C137.565 163.265 128.046 164.319 123.5 163.123M136.759 150.005C138.552 148.912 140.912 146.552 142.005 144.759C149.132 133.07 134.93 118.868 123.241 125.995C119.03 128.562 116.007 133.579 116.007 138C116.007 145.055 122.945 151.993 130 151.993C131.925 151.993 134.967 151.098 136.759 150.005M211.775 109.75C211.423 69.955 211.33 68.253 209.117 61.5C205.376 50.085 200.446 42.265 191.091 32.909C181.52 23.339 173.666 18.458 162 14.832C151.24 11.487 132.76 11.487 122 14.832C110.334 18.458 102.48 23.339 92.909 32.909C80.541 45.278 74.369 57.641 72.521 73.75L71.804 80L104.009 80C134.299 80 136.17 79.896 135.466 78.25C133.58 73.835 132 66.099 132 61.282L132 56L137.863 56L143.726 56L144.248 62.505C145.796 81.788 164.256 96 187.754 96L191.844 96L192.172 114.75C192.469 131.707 192.707 133.882 194.663 137.5C198.115 143.887 206.601 150.974 210.819 150.994C211.896 150.999 212.072 143.423 211.775 109.75" />
    <glyph glyph-name="progress"
      unicode="&#xEA4E;"
      horiz-adv-x="256" d="M110.922 242.448C85.228 237.796 63.029 226.063 45.473 207.86C28.991 190.769 19.381 172.586 14.34 148.953C11.866 137.352 11.866 114.648 14.34 103.047C19.26 79.982 28.964 61.334 44.481 45.123C61.508 27.337 79.498 17.016 104.15 10.89C117.685 7.527 142.315 7.527 155.85 10.89C180.502 17.016 198.492 27.337 215.519 45.123C234.451 64.9 245.23 89.303 247.6 117.75L248.288 126L242.144 126L236 126L235.996 122.25C235.989 115.354 233.014 100.038 229.985 91.295C218.231 57.371 190.603 32.363 154.394 22.87C141.537 19.499 118.463 19.499 105.606 22.87C75.101 30.868 51.432 49.133 36.594 76.128C22.259 102.208 20.272 136.571 31.469 164.773C38.783 183.196 53.579 201.929 69.519 212.948C96.103 231.326 130.357 236.754 160.365 227.344C177.167 222.075 195.878 210.38 207.377 197.959C212.861 192.036 221.521 180.174 220.84 179.52C220.653 179.341 210.263 180.576 197.751 182.265C185.238 183.953 174.748 185.082 174.439 184.773C174.13 184.463 173.627 181.782 173.32 178.815L172.763 173.419L204.632 169.274C222.159 166.994 236.769 165.437 237.098 165.814C237.847 166.673 246.18 229.154 245.62 229.713C244.792 230.542 234 231.253 234 230.479C234 228.86 228.829 191.496 228.569 191.236C228.421 191.088 225.985 194.079 223.156 197.884C206.038 220.904 175.201 238.806 145.566 242.928C135.334 244.351 120.277 244.142 110.922 242.448M90.384 162.647C84.496 161.15 76.148 156.55 75.297 154.332C74.949 153.423 75.972 151.567 77.865 149.674C80.776 146.763 81.181 146.634 83.256 147.965C89.162 151.751 92.744 153 97.696 153C102.044 153 103.512 152.514 106.068 150.231C108.708 147.872 109.167 146.76 109.167 142.719C109.167 134.988 106.068 130.344 89.438 113.159C74.068 97.275 74 97.183 74 92.602L74 88L99 88L124 88L124 93.5L124 99L106.328 99L88.656 99L101.613 111.75C117.278 127.164 121.25 133.572 121.25 143.432C121.25 152.286 118.1 157.441 110.275 161.396C105.857 163.629 96.549 164.214 90.384 162.647M147.75 138.576C131.443 114.869 131 114.089 131 109.112L131 104L148 104L165 104L165 96L165 88L170.5 88L176 88L176 96L176 104L181 104L186 104L186 109.5L186 115L181 115L176 115L176 139L176 163L170.25 162.964L164.5 162.927L147.75 138.576M165 132L165 115L153.482 115L141.964 115L150.513 127.25C155.215 133.987 160.286 141.631 161.781 144.236C163.276 146.84 164.613 148.978 164.75 148.986C164.887 148.994 165 141.35 165 132" />
    <glyph glyph-name="plug"
      unicode="&#xEA4F;"
      horiz-adv-x="256" d="M76 230L76 208L52 208L28 208L28 190L28 172L39.881 172L51.761 172L52.263 156.25C52.829 138.474 54.075 132.628 59.883 120.5C67.261 105.095 78.638 93.116 93.122 85.505L100 81.891L100 66.945L100 52L130 52L160 52L160 66.986L160 81.971L165.757 84.877C180.224 92.18 192.065 104.311 199.552 119.5C205.834 132.244 207.108 137.971 207.729 156.25L208.264 172L220.132 172L232 172L232 190L232 208L208 208L184 208L184 230L184 252L178 252L172 252L172 230L172 208L130 208L88 208L88 230L88 252L82 252L76 252L76 230M220 190L220 184L130 184L40 184L40 190L40 196L130 196L220 196L220 190M196 160.588C196 154.311 195.333 145.649 194.518 141.338C191.895 127.462 183.325 113.09 171.776 103.197C167.104 99.194 152.06 91 149.384 91C148.274 91 148 88.331 148 77.5L148 64L130 64L112 64L112 77.5C112 88.331 111.726 91 110.616 91C107.76 91 92.835 99.279 87.538 103.802C76.467 113.255 68.167 127.4 65.494 141.366C64.672 145.662 64 154.311 64 160.588L64 172L130 172L196 172L196 160.588M124 20L124 0L130 0L136 0L136 20L136 40L130 40L124 40L124 20" />
    <glyph glyph-name="tie-02"
      unicode="&#xEA50;"
      horiz-adv-x="256" d="M73 251.493C73 251.214 78.85 239.292 86 225C93.15 210.708 98.996 197.999 98.992 196.757C98.987 195.516 91.849 165.25 83.129 129.5L67.275 64.5L98.635 33.004L129.996 1.508L161.36 32.86L192.723 64.212L189.334 77.661L185.945 91.11L188.723 94.435C190.25 96.264 196.388 102.983 202.362 109.368C208.66 116.098 213.007 121.54 212.707 122.321C212.423 123.061 200.986 140.054 187.291 160.083C173.596 180.112 162.065 197.04 161.667 197.701C161.255 198.384 166.559 210.126 173.972 224.943C181.137 239.266 187 251.214 187 251.493C187 251.772 161.35 252 130 252C98.65 252 73 251.772 73 251.493M168 239.507C168 239.236 164.068 231.136 159.263 221.507L150.527 204L130 204L109.473 204L100.737 221.507C95.932 231.136 92 239.236 92 239.507C92 239.778 109.1 240 130 240C150.9 240 168 239.778 168 239.507M164.379 129.671L179.336 67.841L154.668 43.173L130 18.505L105.32 43.185L80.641 67.864L95.461 129.182C103.612 162.907 110.475 190.847 110.713 191.271C110.95 191.696 119.757 191.921 130.283 191.771L149.421 191.5L164.379 129.671M183.885 143.71L198.079 122.92L196.116 120.21C195.036 118.719 191.515 114.91 188.291 111.744L182.429 105.988L175.543 134.744C171.756 150.56 168.443 164.175 168.181 165C167.309 167.752 169.485 164.801 183.885 143.71" />
    <glyph glyph-name="bulb-63"
      unicode="&#xEA52;"
      horiz-adv-x="256" d="M124 234L124 216L130 216L136 216L136 234L136 252L130 252L124 252L124 234M40.479 214.979L36.552 210.957L49.271 198.238L61.99 185.52L66.23 189.76L70.47 194L58 206.5C51.142 213.375 45.277 219 44.968 219C44.659 219 42.639 217.19 40.479 214.979M202 206.5L189.53 194L193.77 189.76L198.01 185.52L210.729 198.238L223.448 210.957L219.521 214.979C217.361 217.19 215.341 219 215.032 219C214.723 219 208.858 213.375 202 206.5M116.205 198.953C90.649 194.37 66.574 172.674 59.254 147.631C50.124 116.394 62.513 81.774 88.824 65L95.883 60.5L95.941 42.25L96 24L130 24L164 24L164.026 42.25L164.051 60.5L171.155 65C192.307 78.399 205.373 104.916 203.675 131C202.489 149.238 195.34 164.826 182.083 178.083C167.876 192.289 152.616 198.967 133.01 199.557C126.679 199.747 119.117 199.475 116.205 198.953M143.5 186.502C165.813 181.838 185.838 161.813 190.502 139.5C193.501 125.155 191.928 112.899 185.321 99.112C179.668 87.318 170.288 77.449 159.25 71.68L152 67.891L152 51.945L152 36L130 36L108 36L108 51.945L108 67.891L100.75 71.694C84.584 80.175 72.324 97.096 69.057 115.434C65.426 135.818 71.436 154.474 86.481 169.519C102.132 185.171 121.819 191.034 143.5 186.502M4 126L4 120L22 120L40 120L40 126L40 132L22 132L4 132L4 126M220 126L220 120L238 120L256 120L256 126L256 132L238 132L220 132L220 126M96 6L96 0L130 0L164 0L164 6L164 12L130 12L96 12L96 6" />
    <glyph glyph-name="chart-bar-33"
      unicode="&#xEA53;"
      horiz-adv-x="256" d="M156 242L156 236L179.748 236L203.497 236L166.752 199.256L130.008 162.511L110 182.5L89.993 202.488L63.941 176.436L37.888 150.383L41.88 145.942L45.871 141.5L67.935 163.491L89.999 185.482L110.002 165.498L130.005 145.514L171.002 186.502L212 227.491L212 203.745L212 180L218 180L224 180L224 214L224 248L190 248L156 248L156 242M188 82L188 4L222 4L256 4L256 82L256 160L222 160L188 160L188 82M244 82L244 16L222 16L200 16L200 82L200 148L222 148L244 148L244 82M96 58L96 4L130 4L164 4L164 58L164 112L130 112L96 112L96 58M152 58L152 16L130 16L108 16L108 58L108 100L130 100L152 100L152 58M4 34L4 4L38 4L72 4L72 34L72 64L38 64L4 64L4 34M60 34L60 16L38 16L16 16L16 34L16 52L38 52L60 52L60 34" />
    <glyph glyph-name="chart-growth"
      unicode="&#xEA54;"
      horiz-adv-x="256" d="M125.648 197.729L85.797 148.5L110.898 148.233L136 147.966L136 75.983L136 4L166 4L196 4L196 75.983L196 147.966L221.075 148.233L246.15 148.5L206.489 197.5C184.676 224.45 166.53 246.603 166.164 246.729C165.799 246.855 147.567 224.805 125.648 197.729M193.941 194L221.054 160.5L202.527 160.228L184 159.956L184 87.978L184 16L166 16L148 16L148 87.978L148 159.956L129.478 160.228L110.956 160.5L138.228 194.234C153.228 212.787 165.799 227.862 166.164 227.734C166.529 227.605 179.029 212.425 193.941 194M40 58L40 4L70 4L100 4L100 58L100 112L70 112L40 112L40 58M88 58L88 16L70 16L52 16L52 58L52 100L70 100L88 100L88 58" />
    <glyph glyph-name="money-time"
      unicode="&#xEA57;"
      horiz-adv-x="256" d="M96.215 250.453C48.255 241.69 13.3 206.25 5.422 158.4C1.177 132.615 7.358 104.498 22.251 81.842C37.801 58.189 64.088 40.136 91 34.626C102.597 32.252 118.31 31.553 128.28 32.969C136.372 34.118 136.956 34.356 136.551 36.352C136.311 37.534 135.834 40.238 135.491 42.362C134.89 46.086 134.754 46.201 131.684 45.58C123.322 43.891 107.283 43.825 98.144 45.442C61.014 52.014 31.806 77.316 20.705 112.524C9.568 147.851 18.696 184.745 45.066 210.982C72.531 238.309 111.276 246.994 147.402 233.922C185.249 220.227 212 182.521 212 142.869L212 136L218 136L224 136L223.996 142.75C223.982 165.766 215.376 190.12 200.303 209.801C176.707 240.607 133.879 257.334 96.215 250.453M108 176L108 148L78 148L48 148L48 142L48 136L84 136L120 136L120 170L120 204L114 204L108 204L108 176M184.807 122.496C174.572 120.555 165.116 116.66 158.101 111.496C148.365 104.328 148.546 105.202 148.214 63.741C148.024 40.021 148.298 26.608 149.026 23.902C151.344 15.294 164.439 6.357 180.681 2.3C190.124 -0.06 213.876 -0.06 223.319 2.3C239.304 6.293 252.611 15.339 254.964 23.811C256.468 29.225 256.3330000000001 95.157 254.808 100.247C252.3 108.617 238.938 117.833 223.985 121.507C214.701 123.788 194.328 124.303 184.807 122.496M215.172 110.995C223.345 109.813 231.236 106.941 237.242 102.963C246.904 96.563 245.679 89.117 234 83.262C223.737 78.118 216.241 76.544 202 76.544C187.759 76.544 180.263 78.118 170 83.262C161.869 87.339 158.862 91.839 160.933 96.837C163.269 102.478 176.151 109.202 187.951 110.939C195.823 112.098 207.382 112.122 215.172 110.995M169.574 70.104C188.101 62.161 215.899 62.161 234.426 70.104C238.317 71.772 242.063 73.379 242.75 73.675C244.939 74.618 244.378 61.133 242.072 57.35C239.824 53.664 230.771 48.912 221 46.289C212.066 43.891 191.934 43.891 183 46.289C173.229 48.912 164.176 53.664 161.928 57.35C159.622 61.133 159.061 74.618 161.25 73.675C161.938 73.379 165.683 71.772 169.574 70.104M169.574 38.104C188.101 30.161 215.899 30.161 234.426 38.104C238.317 39.772 242.063 41.379 242.75 41.675C244.939 42.618 244.378 29.133 242.072 25.35C239.824 21.664 230.771 16.912 221 14.289C212.066 11.891 191.934 11.891 183 14.289C173.229 16.912 164.176 21.664 161.928 25.35C159.622 29.133 159.061 42.618 161.25 41.675C161.938 41.379 165.683 39.772 169.574 38.104" />
    <glyph glyph-name="pig"
      unicode="&#xEA58;"
      horiz-adv-x="256" d="M141.792 250.657C129.34 247.149 120 234.878 120 222.027C120 206.208 134.195 192 150 192C165.792 192 180 206.208 180 222C180 232.798 172.288 244.773 162.563 249.075C156.784 251.631 147.704 252.323 141.792 250.657M158.03 237.75C171.153 231.121 171.153 212.879 158.03 206.25C152.386 203.399 147.614 203.399 141.97 206.25C128.847 212.879 128.847 231.121 141.97 237.75C144.42 238.988 148.033 240 150 240C151.967 240 155.58 238.988 158.03 237.75M47.75 195.774C45.138 195.229 43 194.27 43 193.643C43 193.015 45.746 184.262 49.103 174.192L55.205 155.883L49.231 149.662C42.74 142.902 37.004 134.549 34.421 128.094L32.783 124L18.391 124L4 124L4 90L4 56L23 56C33.45 56 42 55.615 42 55.145C42 53.313 54.596 40.67 60.237 36.839C63.509 34.617 69.182 31.572 72.843 30.072L79.5 27.345L79.778 13.673L80.056 0L106.028 0L132 0L132 12L132 24L146 24L160 24L160 12L160 0L186 0L212 0L212 15.315L212 30.63L215.75 32.412C222.721 35.726 231.952 43.053 237.981 50.058C244.914 58.114 252.012 72.169 254.112 82C256.306 92.273 255.855 108.938 253.119 118.672C246.842 141.011 227.907 160.489 204.5 168.686L196.5 171.487L150.874 171.807L105.248 172.126L102.019 176.623C90.883 192.129 68.375 200.072 47.75 195.774M78.524 180.586C86.142 176.821 92.074 171.2 96.226 163.812L98.368 160L143.434 159.983C194.065 159.963 197.303 159.638 210 153.288C220.346 148.115 232.114 136.348 237.289 126C252.675 95.241 239.969 57.69 209.155 42.848L200.127 38.5L200.064 25.25L200 12L186 12L172 12L172 24L172 36L146 36L120 36L120 24L120 12L106 12L92 12L91.998 24.25L91.996 36.5L83.187 39.284C69.605 43.576 58.253 52.106 50.47 63.866L47.734 68L31.867 68L16 68L16 90L16 112L28.753 112L41.507 112L43.854 118.75C47.797 130.091 54.948 139.633 65.854 148.107L69.208 150.714L64.055 166.607C61.22 175.348 58.689 183.125 58.429 183.889C58.046 185.015 59.206 185.177 64.567 184.747C69.41 184.358 73.143 183.245 78.524 180.586M120 142L120 136L150 136L180 136L180 142L180 148L150 148L120 148L120 142M69.97 129.75C56.847 123.121 56.847 104.879 69.97 98.25C72.42 97.012 76.033 96 78 96C79.967 96 83.58 97.012 86.03 98.25C99.153 104.879 99.153 123.121 86.03 129.75C83.58 130.987 79.967 132 78 132C76.033 132 72.42 130.987 69.97 129.75M82 118C83.1 116.9 84 115.1 84 114C84 112.9 83.1 111.1 82 110C80.9 108.9 79.1 108 78 108C76.9 108 75.1 108.9 74 110C72.9 111.1 72 112.9 72 114C72 115.1 72.9 116.9 74 118C75.1 119.1 76.9 120 78 120C79.1 120 80.9 119.1 82 118" />
    <glyph glyph-name="percentage-39"
      unicode="&#xEA59;"
      horiz-adv-x="256" d="M111 250.529C90.045 246.99 70.732 238.973 55 227.281C52.525 225.441 46.344 219.829 41.265 214.809C-10.467 163.684 -7.891 80.392 46.929 31.662C84.514 -1.748 140.002 -9.451 184.294 12.593C221.184 30.952 245.119 61.8 253.666 102C256.167 113.763 256.167 138.237 253.666 150C247.561 178.713 234.782 200.648 212.198 221.182C186.549 244.502 145.613 256.373 111 250.529M147.619 238.485C160.318 236.32 169.133 233.497 180.057 228.099C211.854 212.387 234.041 183.832 241.644 148.836C244.278 136.713 244.084 113.675 241.244 101.357C232.981 65.523 208.941 36.483 175.29 21.687C165.009 17.167 158.691 15.3 147.5 13.476C97.984 5.402 47.457 32.582 26.503 78.564C6.308 122.878 15.855 173.118 51.065 207.829C76.054 232.464 113.401 244.321 147.619 238.485M83.5 191.123C78.818 189.892 74.779 187.467 71.362 183.835C66.007 178.144 64.54 174.308 64.54 166C64.54 157.693 66.006 153.859 71.362 148.162C76.678 142.508 81.479 140.546 90 140.546C95.749 140.546 98.434 141.046 101.5 142.686C106.218 145.209 111.048 150.117 113.618 155C116.171 159.851 116.171 172.149 113.618 177C111.067 181.847 106.202 186.814 101.762 189.102C97.565 191.265 88.046 192.319 83.5 191.123M136 186L136 180L155.746 180L175.493 180L124.506 129.006L73.518 78.011L77.765 73.765L82.011 69.518L133.006 120.506L184 171.493L184 151.746L184 132L190 132L196 132L196 162L196 192L166 192L136 192L136 186M96.759 178.005C100.97 175.438 103.993 170.421 103.993 166C103.993 161.579 100.97 156.562 96.759 153.995C85.07 146.868 70.868 161.07 77.995 172.759C80.562 176.97 85.579 179.993 90 179.993C91.925 179.993 94.967 179.098 96.759 178.005M163.5 111.123C158.818 109.892 154.779 107.467 151.362 103.835C146.007 98.144 144.54 94.308 144.54 86C144.54 77.693 146.006 73.859 151.362 68.162C156.678 62.508 161.479 60.546 170 60.546C175.749 60.546 178.434 61.046 181.5 62.686C186.218 65.209 191.048 70.117 193.618 75C196.171 79.851 196.171 92.149 193.618 97C191.067 101.847 186.202 106.814 181.762 109.102C177.565 111.265 168.046 112.319 163.5 111.123M176.759 98.005C180.97 95.438 183.993 90.421 183.993 86C183.993 81.579 180.97 76.562 176.759 73.995C165.07 66.868 150.868 81.07 157.995 92.759C162.151 99.576 170.4 101.883 176.759 98.005" />
    <glyph glyph-name="percentage-38"
      unicode="&#xEA5A;"
      horiz-adv-x="256" d="M111 250.529C90.045 246.99 70.732 238.973 55 227.281C52.525 225.441 46.344 219.829 41.265 214.809C-10.467 163.684 -7.891 80.392 46.929 31.662C84.514 -1.748 140.002 -9.451 184.294 12.593C221.184 30.952 245.119 61.8 253.666 102C256.167 113.763 256.167 138.237 253.666 150C247.561 178.713 234.782 200.648 212.198 221.182C186.549 244.502 145.613 256.373 111 250.529M147.619 238.485C160.318 236.32 169.133 233.497 180.057 228.099C211.854 212.387 234.041 183.832 241.644 148.836C244.278 136.713 244.084 113.675 241.244 101.357C232.981 65.523 208.941 36.483 175.29 21.687C165.009 17.167 158.691 15.3 147.5 13.476C97.984 5.402 47.457 32.582 26.503 78.564C6.308 122.878 15.855 173.118 51.065 207.829C76.054 232.464 113.401 244.321 147.619 238.485M83.5 191.123C78.818 189.892 74.779 187.467 71.362 183.835C66.007 178.144 64.54 174.308 64.54 166C64.54 157.693 66.006 153.859 71.362 148.162C76.678 142.508 81.479 140.546 90 140.546C95.749 140.546 98.434 141.046 101.5 142.686C106.218 145.209 111.048 150.117 113.618 155C116.171 159.851 116.171 172.149 113.618 177C111.067 181.847 106.202 186.814 101.762 189.102C97.565 191.265 88.046 192.319 83.5 191.123M125.506 130.006L69.518 74.011L73.766 69.764L78.014 65.516L134.232 121.735L190.451 177.954L186.523 181.977C184.362 184.19 182.346 186 182.044 186C181.741 186 156.299 160.803 125.506 130.006M96.759 178.005C100.97 175.438 103.993 170.421 103.993 166C103.993 161.579 100.97 156.562 96.759 153.995C85.07 146.868 70.868 161.07 77.995 172.759C80.562 176.97 85.579 179.993 90 179.993C91.925 179.993 94.967 179.098 96.759 178.005M163.5 111.123C158.818 109.892 154.779 107.467 151.362 103.835C146.007 98.144 144.54 94.308 144.54 86C144.54 77.693 146.006 73.859 151.362 68.162C156.678 62.508 161.479 60.546 170 60.546C175.749 60.546 178.434 61.046 181.5 62.686C186.218 65.209 191.048 70.117 193.618 75C196.171 79.851 196.171 92.149 193.618 97C191.067 101.847 186.202 106.814 181.762 109.102C177.565 111.265 168.046 112.319 163.5 111.123M176.759 98.005C180.97 95.438 183.993 90.421 183.993 86C183.993 81.579 180.97 76.562 176.759 73.995C165.07 66.868 150.868 81.07 157.995 92.759C162.151 99.576 170.4 101.883 176.759 98.005" />
    <glyph glyph-name="stock"
      unicode="&#xEA5B;"
      horiz-adv-x="256" d="M4 126L4 16L130 16L256 16L256 126L256 236L130 236L4 236L4 126M164 201.735L164 179.469L159.01 177.697C152.121 175.25 144.815 167.779 141.987 160.289C140.238 155.655 139.899 153.103 140.289 147.5L140.777 140.5L133.78 132.25C129.932 127.713 126.421 124 125.977 124C125.534 124 117.236 132.775 107.538 143.5C97.84 154.225 89.742 163 89.542 163C89.342 163 82.139 153.325 73.535 141.5C64.93 129.675 57.586 120 57.214 120C56.842 120 52.366 124.154 47.267 129.232L37.997 138.463L26.999 127.499L16 116.534L16 170.267L16 224L90 224L164 224L164 201.735M244 200.024L244 176.049L226.866 153.774C217.443 141.523 209.58 131.324 209.393 131.11C209.206 130.895 206.533 132.622 203.453 134.948C199.242 138.127 198.032 139.588 198.573 140.838C198.969 141.752 199.493 145.2 199.737 148.5C200.636 160.643 192.255 173.696 180.99 177.697L176 179.469L176 201.735L176 224L210 224L244 224L244 200.024M178.03 165.75C191.153 159.121 191.153 140.879 178.03 134.25C172.386 131.399 167.614 131.399 161.97 134.25C148.847 140.879 148.847 159.121 161.97 165.75C164.42 166.987 168.033 168 170 168C171.967 168 175.58 166.987 178.03 165.75M244 92L244 28L210 28L176 28L176 68L176 108L170 108L164 108L164 68L164 28L90 28L16 28L16 63.767L16 99.534L27 110.5L37.999 121.465L48.37 111.13L58.741 100.794L74.46 122.397C83.105 134.279 90.342 144 90.542 144C90.742 144 98.838 135.227 108.534 124.504L126.163 105.009L136.778 117.433L147.393 129.857L151.226 126.821C162.224 118.11 177.172 117.927 188.239 126.369L191.715 129.02L201.107 121.514C206.273 117.385 210.725 114.012 211 114.017C211.275 114.023 218.7 123.45 227.5 134.966C236.3 146.483 243.613 155.927 243.75 155.953C243.887 155.979 244 127.2 244 92" />
    <glyph glyph-name="strategy"
      unicode="&#xEA5D;"
      horiz-adv-x="256" d="M48 215.612L48 179.224L69.5 161.558C81.325 151.841 91 143.47 91 142.956C91 141.85 70.181 44.303 69.4 41.75C68.919 40.176 67.212 40 52.433 40L36 40L36 20L36 0L130 0L224 0L224 20L224 40L207.567 40C192.788 40 191.081 40.176 190.6 41.75C189.818 44.306 169 141.851 169 142.958C169 143.473 178.675 151.854 190.5 161.581L212 179.267L212 215.633L212 252L192 252L172 252L172 238L172 224L162 224L152 224L152 238L152 252L130 252L108 252L108 238L108 224L98 224L88 224L88 238L88 252L68 252L48 252L48 215.612M76 226L76 212L98 212L120 212L120 226L120 240L130 240L140 240L140 226L140 212L162 212L184 212L184 226L184 240L192 240L200 240L200 214L200 188L130 188L60 188L60 214L60 240L68 240L76 240L76 226M174.541 164L159.981 152L130 152L100.019 152L85.459 164L70.899 176L130 176L189.101 176L174.541 164M157.399 138.25C158.371 135.061 178 42.74 178 41.357C178 40.233 169.747 40 130 40C90.253 40 82 40.233 82 41.357C82 42.74 101.629 135.061 102.601 138.25C103.092 139.86 105.284 140 130 140C154.716 140 156.908 139.86 157.399 138.25M212 20L212 12L130 12L48 12L48 20L48 28L130 28L212 28L212 20" />
    <glyph glyph-name="privacy-policy"
      unicode="&#xEA5E;"
      horiz-adv-x="256" d="M37.734 230.975C28.316 228.599 19.456 221.169 15.108 212C12.933 207.414 12.5 205.088 12.5 198C12.5 187.731 15.21 180.979 22.094 174.094C28.979 167.21 35.731 164.5 46 164.5C56.269 164.5 63.021 167.21 69.906 174.094C76.79 180.979 79.5 187.731 79.5 198C79.5 205.088 79.067 207.414 76.892 212C73.607 218.926 67.026 225.539 60.29 228.68C54.413 231.421 43.789 232.502 37.734 230.975M205.734 230.975C196.316 228.599 187.456 221.169 183.108 212C180.933 207.414 180.5 205.088 180.5 198C180.5 187.731 183.21 180.979 190.094 174.094C196.979 167.21 203.731 164.5 214 164.5C224.269 164.5 231.021 167.21 237.906 174.094C244.79 180.979 247.5 187.731 247.5 198C247.5 205.088 247.067 207.414 244.892 212C241.607 218.926 235.026 225.539 228.29 228.68C222.413 231.421 211.789 232.502 205.734 230.975M54.5 218.121C63.118 214.168 67.433 207.455 67.433 198C67.433 190.908 66.006 187.298 61.343 182.586C50.489 171.62 32.469 175.133 25.879 189.5C17.924 206.842 37.158 226.076 54.5 218.121M222.5 218.121C227.065 216.027 231.443 211.923 233.809 207.521C235.98 203.481 235.98 192.519 233.809 188.479C228.154 177.957 215.606 173.255 205.5 177.871C191.11 184.443 187.67 202.313 198.657 213.414C204.916 219.738 214.746 221.678 222.5 218.121M33.746 154.978C19.311 151.332 7.697 139.221 5.001 125.006C4.417 121.925 4 98.964 4 69.864L4 20L42 20L80 20L80 58L80 96L74 96L68 96L68 64L68 32L42 32L16 32L16 76.822C16 127.481 16.037 127.774 23.347 135.28C33.028 145.222 46.176 146.728 57.365 139.177C59.491 137.742 66.066 130.701 71.976 123.529C87.953 104.142 97.3 95.924 111.577 88.708L116.653 86.142L119.272 91.481L121.89 96.82L113.343 101.617C102.519 107.692 93.708 115.856 80.493 132.055C70.006 144.91 64.88 149.396 56.384 153.154C51.161 155.465 39.418 156.411 33.746 154.978M208.375 154.922C200.319 152.988 192.021 146.924 183.712 136.897C165.126 114.472 153.94 104.231 141.61 98.351L138.165 96.708L140.757 91.423L143.349 86.138L147.425 88.215C161.996 95.641 172.742 104.986 187.995 123.494C202.319 140.875 208.282 144.734 219.362 143.793C226.082 143.222 231.533 140.539 236.653 135.28C243.963 127.774 244 127.481 244 76.822L244 32L218 32L192 32L192 64L192 96L186 96L180 96L180 58L180 20L218 20L256 20L256 69.864C256 98.964 255.583 121.925 254.999 125.006C251.791 141.923 237.146 154.62 219.794 155.53C215.782 155.741 210.644 155.467 208.375 154.922" />
    <glyph glyph-name="chess-knight"
      unicode="&#xEA5F;"
      horiz-adv-x="256" d="M84 238.242L84 224.483L61.5 202C49.125 189.634 39 179.223 39 178.863C39 177.647 55.087 151 55.821 151C56.222 151 66.652 154.375 79 158.5C91.348 162.625 101.962 166 102.588 166C104.691 166 107.477 154.915 107.489 146.5C107.499 139.354 107.152 137.859 104.243 132.5C102.452 129.2 96.658 121.1 91.369 114.5C73.675 92.423 68.322 83.856 64.191 71C62.57 65.957 60 54.498 60 52.316C60 52.142 52.8 52 44 52L28 52L28 26L28 0L130 0L232 0L232 26L232 52L211.952 52L191.904 52L194.948 56.425C202.83 67.881 210.061 85.615 213.656 102.305C215.787 112.2 216.058 138.141 214.133 147.857C204.631 195.804 170.935 233.595 126.101 246.588C114.789 249.866 101.29 251.991 91.75 251.996L84 252L84 238.242M119.5 235.971C156.348 226.314 187.775 196.278 198.468 160.5C202.584 146.729 203.414 140.937 203.414 126C203.414 106.351 200.204 92.438 191.764 75.5C187.651 67.247 186.166 64.855 180.128 56.75L176.589 52L124.32 52L72.05 52L72.632 55.25C74.823 67.481 78.763 77.392 85.117 86.657C86.686 88.944 93.401 97.671 100.04 106.05C112.685 122.011 115.729 126.967 118.388 135.932C121.405 146.097 119.868 158.846 114.131 171.242C108.875 182.599 111.736 182.392 84.612 173.381L60.888 165.5L59.126 167.835C58.157 169.119 56.523 171.731 55.495 173.639L53.626 177.109L74.813 198.313L96 219.517L96 229.407L96 239.296L103.75 238.682C108.013 238.344 115.1 237.124 119.5 235.971M116.594 219.322C114.449 213.027 114.554 212.323 117.75 211.563C123.307 210.24 138.695 201.897 145.5 196.518C182.614 167.175 190.722 114.351 164.124 75.183C161.856 71.843 160 68.936 160 68.724C160 68.255 168.64 62 169.287 62C170.344 62 180.126 78.03 183.01 84.489C184.726 88.332 187.294 95.757 188.715 100.989C192.303 114.191 192.518 136.039 189.192 149.375C180.855 182.802 157.109 209.639 125.263 221.626C121.793 222.932 118.782 224 118.571 224C118.36 224 117.471 221.895 116.594 219.322M220 26L220 12L130 12L40 12L40 26L40 40L130 40L220 40L220 26" />
    <glyph glyph-name="book-bookmark"
      unicode="&#xEA60;"
      horiz-adv-x="256" d="M41.385 250.383C35.991 248.47 29.484 242.818 26.716 237.643L24.5 233.5L24.5 126L24.5 18.5L26.662 14.5C29.536 9.184 34.491 4.569 40 2.079C44.413 0.083 46.156 0.044 130 0.044C213.844 0.044 215.587 0.083 220 2.079C225.509 4.569 230.464 9.184 233.338 14.5L235.5 18.5L235.5 126L235.5 233.5L233.284 237.643C230.417 243.005 223.964 248.484 218.205 250.446C211.565 252.708 47.778 252.65 41.385 250.383M64.24 194.012L64.5 148.024L81.25 157.579L98 167.134L114.75 157.579L131.5 148.024L131.76 194.012L132.02 240L172.76 239.996C211.648 239.993 213.648 239.902 216.759 238.005C218.552 236.912 220.912 234.552 222.005 232.759C223.946 229.576 223.993 227.56 223.993 146C223.993 64.44 223.946 62.424 222.005 59.241C220.912 57.448 218.552 55.088 216.759 53.995C213.576 52.054 211.556 52.007 129.761 52.004C49.856 52 45.792 51.913 41.011 50.096L36 48.192L36.004 138.846C36.007 227.541 36.05 229.57 37.995 232.759C41.412 238.363 45.292 239.992 55.24 239.996L63.98 240L64.24 194.012M120 204.5C120 184.975 119.751 169 119.447 169C119.143 169 114.193 171.714 108.447 175.03L98 181.061L87.553 175.03C81.807 171.714 76.857 169 76.553 169C76.249 169 76 184.975 76 204.5L76 240L98 240L120 240L120 204.5M222.231 19.655C221.219 17.924 218.887 15.493 217.048 14.253L213.704 12L130.102 12.004C48.444 12.007 46.424 12.054 43.241 13.995C33.807 19.747 33.807 32.253 43.241 38.005C46.424 39.946 48.47 39.993 131 40.022C210.154 40.051 215.753 40.166 219.5 41.851L223.5 43.649L223.785 33.227C224.021 24.568 223.758 22.271 222.231 19.655" />
    <glyph glyph-name="design"
      unicode="&#xEA61;"
      horiz-adv-x="256" d="M33.5 222L5.513 193.999L37.5 162L69.488 130L37.498 97.998L5.508 65.996L37.752 33.752L69.996 1.508L101.997 33.497L133.998 65.486L156.749 42.843L179.5 20.2L211.92 15.603C229.751 13.075 244.487 11.154 244.667 11.333C244.846 11.513 242.925 26.249 240.397 44.08L235.8 76.5L213.157 99.251L190.514 122.002L222.503 154.003L254.492 186.004L222.248 218.248L190.004 250.492L158.002 218.502L126 186.512L94.244 218.256C76.779 235.715 62.263 250 61.988 250C61.712 250 48.892 237.4 33.5 222M72.008 223.492L81.477 213.983L61.74 194.246L42.003 174.51L32.26 184.253L22.516 193.997L41.998 213.498C52.714 224.224 61.719 233 62.01 233C62.301 233 66.8 228.721 72.008 223.492M214.004 209.496L237.491 185.993L153.747 102.248L70.002 18.503L46.254 42.251L22.507 65.999L38.247 81.74L53.988 97.48L65.995 85.505L78.001 73.53L82.235 77.765L86.47 81.999L74.497 94.003L62.524 106.008L70.254 113.738L77.985 121.468L85.997 113.503L94.009 105.538L98.235 109.765L102.462 113.991L94.497 122.003L86.532 130.015L94.262 137.746L101.992 145.476L113.997 133.503L126.001 121.53L130.235 125.765L134.47 129.999L122.497 142.003L110.524 154.008L118.254 161.738L125.985 169.468L133.997 161.503L142.009 153.538L146.235 157.765L150.462 161.991L142.497 170.003L134.532 178.015L142.262 185.746L149.992 193.476L161.997 181.503L174.001 169.53L178.235 173.765L182.47 177.999L170.499 190.001L158.528 202.004L174.002 217.502C182.512 226.026 189.71 233 189.996 233C190.282 233 201.085 222.423 214.004 209.496M104.005 191.495L117.483 177.989L97.742 158.248L78.001 138.508L64.258 152.251L50.514 165.995L69.997 185.497C80.713 196.224 89.716 205 90.004 205C90.292 205 96.593 198.923 104.005 191.495M202.003 93.497L221.487 73.994L201.744 54.25L182 34.506L162.256 54.25L142.513 73.994L161.997 93.497C172.713 104.224 181.714 113 182 113C182.286 113 191.287 104.224 202.003 93.497M228.433 42.528C229.784 33.193 230.789 25.456 230.667 25.334C230.545 25.212 223.033 26.2 213.973 27.53C204.913 28.86 196.83 29.96 196.012 29.974C195.194 29.988 201.492 36.979 210.009 45.509C218.526 54.039 225.603 60.677 225.735 60.259C225.868 59.842 227.082 51.863 228.433 42.528" />
    <glyph glyph-name="layers-2"
      unicode="&#xEA62;"
      horiz-adv-x="256" d="M72 236L72 224L78 224L84 224L84 230L84 236L162 236L240 236L240 158L240 80L234 80L228 80L228 74L228 68L240 68L252 68L252 158L252 248L162 248L72 248L72 236M40 204L40 192L46 192L52 192L52 198L52 204L130 204L208 204L208 126L208 48L202 48L196 48L196 42L196 36L208 36L220 36L220 126L220 216L130 216L40 216L40 204M8 94L8 4L98 4L188 4L188 94L188 184L98 184L8 184L8 94M176 94L176 16L98 16L20 16L20 94L20 172L98 172L176 172L176 94" />
    <glyph glyph-name="stack"
      unicode="&#xEA63;"
      horiz-adv-x="256" d="M68.25 213.788C34.563 194.485 7 178.398 7 178.039C7 177.68 34.675 161.539 68.5 142.17L130 106.954L191.5 142.17C225.325 161.539 253 177.658 253 177.99C253 178.533 130.497 249.08 129.794 248.942C129.632 248.91 101.938 233.091 68.25 213.788M179.94 206.5C206.911 191.1 228.978 178.275 228.977 178C228.976 177.725 206.706 164.786 179.488 149.247L130 120.994L80.512 149.247C53.294 164.786 31.024 177.725 31.024 178C31.024 178.71 129.352 234.912 130.2 234.686C130.586 234.584 152.968 221.9 179.94 206.5M23.75 136.301C14.537 130.99 7 126.361 7 126.015C7 125.67 34.675 109.539 68.5 90.17L130 54.954L191.5 90.17C225.325 109.539 253 125.655 253 125.982C253 126.719 219.015 146.385 218.632 145.871C218.48 145.667 217.1 143.308 215.565 140.629C213.529 137.075 213.1 135.556 213.979 135.013C214.642 134.603 218.292 132.52 222.09 130.384C225.888 128.248 228.991 126.275 228.985 126C228.98 125.725 206.706 112.786 179.488 97.247L130 68.994L80.512 97.247C53.294 112.786 31.02 125.725 31.015 126C31.009 126.275 34.112 128.248 37.91 130.384C41.708 132.52 45.342 134.593 45.987 134.992C46.821 135.507 46.343 137.193 44.329 140.843C42.773 143.664 41.275 145.968 41 145.964C40.725 145.96 32.963 141.612 23.75 136.301M23.75 84.301C14.537 78.99 7 74.361 7 74.015C7 73.67 34.675 57.539 68.5 38.17L130 2.954L191.5 38.17C225.325 57.539 253 73.646 253 73.964C253 74.693 219.001 94.357 218.594 93.864C218.428 93.664 217.033 91.319 215.494 88.653C213.398 85.021 213.008 83.613 213.941 83.037C214.625 82.614 218.292 80.52 222.09 78.384C225.888 76.248 228.991 74.275 228.985 74C228.98 73.725 206.706 60.786 179.488 45.247L130 16.994L80.512 45.247C53.294 60.786 31.02 73.725 31.015 74C31.009 74.275 34.112 76.248 37.91 78.384C41.708 80.52 45.342 82.593 45.987 82.992C46.821 83.507 46.343 85.193 44.329 88.843C42.773 91.664 41.275 93.968 41 93.964C40.725 93.96 32.963 89.612 23.75 84.301" />
    <glyph glyph-name="magnet"
      unicode="&#xEA64;"
      horiz-adv-x="256" d="M73.831 204.987C25.979 156.398 21.86 151.488 15.539 135.5C10.473 122.686 8.753 113.556 8.756 99.5C8.759 85.288 10.69 75.1 15.674 63C27.013 35.474 50.916 14.588 80 6.795C87.246 4.853 90.861 4.527 104.5 4.586C118.886 4.648 121.387 4.926 129.296 7.336C139.051 10.31 149.023 14.965 157.746 20.615C161.198 22.851 181.705 42.474 209 69.66L254.5 114.977L234.5 134.976L214.5 154.975L169.399 110.615C117.743 59.807 120.202 61.635 103.5 61.635C91.698 61.635 85.276 64.072 77.575 71.47C64.907 83.643 61.592 101.939 69.237 117.5C70.476 120.024 87.402 137.743 115.101 165.515C139.245 189.723 159 209.994 159 210.562C159 211.557 119.681 250 118.663 250C118.388 250 98.213 229.744 73.831 204.987M130.592 222.349C136.867 216.491 142 211.211 142 210.615C142 210.019 136.945 204.461 130.766 198.265L119.531 186.999L107.766 198.734L96 210.469L107.234 221.734C113.412 227.93 118.629 233 118.826 233C119.023 233 124.318 228.207 130.592 222.349M86.036 153.497C64.308 131.66 60.707 127.598 58.055 121.931C46.319 96.851 56.227 67.176 80.635 54.309C94.775 46.855 114.458 47.328 128.623 55.462C131.459 57.09 143.764 68.46 158.021 82.626L182.542 106.99L194.285 95.215L206.029 83.441L180.764 58.382C166.869 44.599 153.36 31.876 150.744 30.109C144.068 25.598 132.663 20.367 125 18.301C115.801 15.821 91.089 15.858 82.058 18.366C58.633 24.87 38.344 42.081 27.973 64.245C22.75 75.406 20.806 84.971 20.806 99.5C20.806 114.086 22.75 123.594 28.047 134.915C32.828 145.132 36.872 149.986 62.902 176.755L87.46 202.01L99.216 190.284L110.973 178.558L86.036 153.497M226.005 103.505L214.532 91.999L203.266 103.233C197.07 109.412 192 114.836 192 115.286C192 115.737 197.063 121.003 203.25 126.99L214.5 137.875L225.989 126.443L237.478 115.011L226.005 103.505" />
    <glyph glyph-name="measure-big"
      unicode="&#xEA65;"
      horiz-adv-x="256" d="M12 122.244L12 0L130.235 0L248.47 0L236.378 12.25C229.727 18.988 180.738 69.725 127.514 125C74.29 180.275 26.525 229.772 21.371 234.994L12 244.487L12 122.244M216.437 15.179L219.374 12L121.687 12L24 12L24 22L24 32L32 32L40 32L40 38L40 44L32 44L24 44L24 54L24 64L36 64L48 64L48 70L48 76L36 76L24 76L24 86L24 96L32 96L40 96L40 102L40 108L32 108L24 108L24 118L24 128L36 128L48 128L48 134L48 140L36 140L24 140L24 150L24 160L32 160L40 160L40 166L40 172L32 172L24 172L24 193.488L24 214.976L118.75 116.667C170.863 62.598 214.822 16.928 216.437 15.179M68 86L68 48L106.245 48L144.49 48L106.5 86C85.605 106.9 68.395 124 68.255 124C68.115 124 68 106.9 68 86M98 77.5L115.479 60L97.739 60L80 60L80 77.5C80 87.125 80.117 95 80.261 95C80.404 95 88.387 87.125 98 77.5" />
    <glyph glyph-name="pantone"
      unicode="&#xEA68;"
      horiz-adv-x="256" d="M36 126L36 0L90 0L144 0L144.006 28.25C144.014 69.664 139.703 61.056 187 114.112C208.175 137.865 225.632 157.627 225.792 158.027C225.999 158.541 188.41 192.264 186.29 193.467C186.175 193.532 187.714 198.853 189.71 205.29C191.706 211.728 193.15 217.173 192.919 217.391C192.689 217.608 181.7 221.108 168.5 225.168L144.5 232.549L144.214 242.275L143.928 252L89.964 252L36 252L36 126M132 166L132 92L90 92L48 92L48 166L48 240L90 240L132 240L132 166M162.25 214.5C170.912 211.851 178 209.294 178 208.817C178 208.049 145.561 102.012 144.557 99.5C144.338 98.95 144.122 125.886 144.079 159.357C144.016 207.642 144.258 220.121 145.25 219.765C145.938 219.518 153.588 217.149 162.25 214.5M197.288 168.041C203.772 162.37 208.947 157.409 208.788 157.018C208.389 156.031 157.6 99.067 157.346 99.321C157.233 99.433 162.07 115.495 168.095 135.013C174.119 154.531 179.754 172.895 180.616 175.822C182.027 180.613 182.349 181.005 183.842 179.748C184.754 178.981 190.805 173.713 197.288 168.041M132 46L132 12L90 12L48 12L48 46L48 80L90 80L132 80L132 46M81.97 61.75C68.847 55.121 68.847 36.879 81.97 30.25C84.42 29.012 88.033 28 90 28C91.967 28 95.58 29.012 98.03 30.25C111.153 36.879 111.153 55.121 98.03 61.75C95.58 62.988 91.967 64 90 64C88.033 64 84.42 62.988 81.97 61.75M94 50C95.1 48.9 96 47.1 96 46C96 44.9 95.1 43.1 94 42C92.9 40.9 91.1 40 90 40C88.9 40 87.1 40.9 86 42C84.9 43.1 84 44.9 84 46C84 47.1 84.9 48.9 86 50C87.1 51.1 88.9 52 90 52C91.1 52 92.9 51.1 94 50" />
    <glyph glyph-name="pen-tool-2"
      unicode="&#xEA69;"
      horiz-adv-x="256" d="M117.505 234.005L101.533 218.009L110.419 209.082L119.305 200.154L115.902 198.754C114.031 197.983 97.314 191.311 78.753 183.926C58.532 175.881 44.827 169.899 44.558 169C43.079 164.045 14.846 11.82 15.319 11.348C15.788 10.879 167.862 39.058 173 40.566C173.902 40.831 179.857 54.47 187.926 74.753C195.311 93.314 201.983 110.031 202.754 111.902L204.154 115.305L213.086 106.415L222.017 97.525L238.255 113.763L254.493 130.001L194.5 190C161.503 223 134.275 250 133.991 250C133.708 250 126.289 242.802 117.505 234.005M185.998 181.502L237.488 130.004L229.741 122.257L221.993 114.509L170.26 166.243L118.526 217.976L125.988 225.488C130.092 229.62 133.688 233 133.979 233C134.269 233 157.678 209.826 185.998 181.502M161.755 157.745L194.999 124.49L180.383 87.938L165.766 51.385L106.133 40.109C73.335 33.907 45.15 28.596 43.5 28.306C41.003 27.867 44.839 32.137 66.384 53.78L92.268 79.782L96.384 77.913C107.903 72.682 122.839 78.391 129.314 90.5C132.358 96.191 132.331 107.842 129.261 113.643C124.988 121.718 114.809 128 106 128C97.191 128 87.012 121.718 82.739 113.643C79.935 108.344 79.641 96.159 82.204 91.427L83.868 88.354L57.934 62.434C43.67 48.178 31.997 36.961 31.993 37.507C31.975 40.075 55.298 161.537 55.859 161.799C57.435 162.535 127.555 190.826 128.006 190.908C128.284 190.959 143.471 176.035 161.755 157.745M112.759 114.005C114.552 112.912 116.912 110.552 118.005 108.759C125.132 97.07 110.93 82.868 99.241 89.995C97.448 91.088 95.088 93.448 93.995 95.241C86.868 106.93 101.07 121.132 112.759 114.005" />
    <glyph glyph-name="ruler-pencil"
      unicode="&#xEA6A;"
      horiz-adv-x="256" d="M12 126L12 0L66 0L120 0L120 126L120 252L66 252L12 252L12 126M156 155.874L156 59.749L178.75 32.422C191.263 17.392 201.725 5.101 202 5.108C202.275 5.115 212.738 17.461 225.25 32.542L248 59.964L248 155.982L248 252L202 252L156 252L156 155.874M108 126L108 12L66 12L24 12L24 22L24 32L35 32L46 32L46 38L46 44L35 44L24 44L24 54L24 64L39 64L54 64L54 70L54 76L39 76L24 76L24 86L24 96L35 96L46 96L46 102L46 108L35 108L24 108L24 118L24 128L39 128L54 128L54 134L54 140L39 140L24 140L24 150L24 160L35 160L46 160L46 166L46 172L35 172L24 172L24 182L24 192L39 192L54 192L54 198L54 204L39 204L24 204L24 222L24 240L66 240L108 240L108 126M236 226L236 212L202 212L168 212L168 226L168 240L202 240L236 240L236 226M75.241 226.005C68.424 221.849 66.117 213.6 69.995 207.241C75.747 197.807 88.253 197.807 94.005 207.241C101.132 218.93 86.93 233.132 75.241 226.005M83.554 214.913C84.584 213.245 82.267 211.333 80.887 212.713C79.733 213.867 80.455 216 82 216C82.485 216 83.184 215.511 83.554 214.913M196 134L196 68L182 68L168 68L168 134L168 200L182 200L196 200L196 134M236 134L236 68L222 68L208 68L208 134L208 200L222 200L236 200L236 134M227.323 53.698C219.885 44.304 202.573 24 202 24C201.427 24 184.115 44.304 176.677 53.698L174.855 56L202 56L229.145 56L227.323 53.698" />
    <glyph glyph-name="window-paragraph"
      unicode="&#xEA6B;"
      horiz-adv-x="256" d="M4 126L4 16L130 16L256 16L256 126L256 236L130 236L4 236L4 126M244 202L244 180L130 180L16 180L16 202L16 224L130 224L244 224L244 202M36 202L36 196L50 196L64 196L64 202L64 208L50 208L36 208L36 202M76 202L76 196L90 196L104 196L104 202L104 208L90 208L76 208L76 202M168 202L168 196L196 196L224 196L224 202L224 208L196 208L168 208L168 202M244 98L244 28L130 28L16 28L16 98L16 168L130 168L244 168L244 98M36 98L36 60L74 60L112 60L112 98L112 136L74 136L36 136L36 98M128 130L128 124L176 124L224 124L224 130L224 136L176 136L128 136L128 130M100 98L100 72L74 72L48 72L48 98L48 124L74 124L100 124L100 98M128 98L128 92L176 92L224 92L224 98L224 104L176 104L128 104L128 98M128 66L128 60L158 60L188 60L188 66L188 72L158 72L128 72L128 66" />
    <glyph glyph-name="window-dev"
      unicode="&#xEA6C;"
      horiz-adv-x="256" d="M4 126L4 16L130 16L256 16L256 126L256 236L130 236L4 236L4 126M244 202L244 180L130 180L16 180L16 202L16 224L130 224L244 224L244 202M36 202L36 196L50 196L64 196L64 202L64 208L50 208L36 208L36 202M76 202L76 196L90 196L104 196L104 202L104 208L90 208L76 208L76 202M168 202L168 196L196 196L224 196L224 202L224 208L196 208L168 208L168 202M244 98L244 28L130 28L16 28L16 98L16 168L130 168L244 168L244 98M125.23 105.647C115.184 85.766 106.86 68.941 106.732 68.258C106.605 67.575 108.782 65.945 111.571 64.637L116.641 62.258L135.33 99.65L154.018 137.043L151.502 137.999C150.118 138.525 147.751 139.594 146.241 140.375L143.496 141.795L125.23 105.647M77.495 113.995L65.521 101.989L77.756 89.755L89.99 77.52L94.226 81.756L98.462 85.991L90.504 93.996L82.547 102L90.488 109.988L98.429 117.976L94.512 121.988C92.357 124.195 90.341 126 90.031 126C89.722 126 84.08 120.598 77.495 113.995M165.488 121.988L161.571 117.976L169.512 109.988L177.453 102L169.496 93.996L161.538 85.991L165.774 81.756L170.01 77.52L182.244 89.755L194.479 101.989L182.505 113.995C175.92 120.598 170.278 126 169.969 126C169.659 126 167.643 124.195 165.488 121.988" />
    <glyph glyph-name="sidebar"
      unicode="&#xEA6D;"
      horiz-adv-x="256" d="M8 126L8 24L130 24L252 24L252 126L252 228L130 228L8 228L8 126M148 126L148 36L84 36L20 36L20 126L20 216L84 216L148 216L148 126M240 126L240 36L200 36L160 36L160 126L160 216L200 216L240 216L240 126M176 174L176 168L200 168L224 168L224 174L224 180L200 180L176 180L176 174M176 142L176 136L200 136L224 136L224 142L224 148L200 148L176 148L176 142M176 110L176 104L200 104L224 104L224 110L224 116L200 116L176 116L176 110M176 78L176 72L200 72L224 72L224 78L224 84L200 84L176 84L176 78" />
    <glyph glyph-name="shape-star"
      unicode="&#xEA6E;"
      horiz-adv-x="256" d="M110.529 206.572C95.918 176.739 91.238 168.034 89.605 167.652C88.447 167.382 69.5 164.583 47.5 161.433C25.5 158.282 7.16 155.409 6.745 155.047C6.33 154.686 19.717 140.99 36.495 124.611C55.71 105.853 67 94.116 67 92.899C67 91.835 63.847 72.676 59.994 50.322C56.14 27.969 53.153 9.514 53.355 9.312C53.557 9.11 70.885 17.972 91.861 29.005L130 49.066L168.139 29.005C189.115 17.972 206.434 9.101 206.625 9.292C206.817 9.483 203.829 27.966 199.987 50.365C196.144 72.764 193 91.933 193 92.963C193 94.102 204.955 106.512 223.498 124.62C240.272 141.002 253.659 154.697 253.248 155.054C252.837 155.412 234.5 158.282 212.5 161.433C190.5 164.583 171.561 167.38 170.414 167.648C168.804 168.023 164.028 176.911 149.499 206.567C139.144 227.705 130.374 245 130.01 245C129.646 245 120.88 227.707 110.529 206.572M145.541 187.5C153.713 170.725 160.484 157 160.587 157C161.922 157 228.274 147.033 228.429 146.81C228.548 146.639 217.728 135.925 204.385 123C191.042 110.075 180.097 98.699 180.062 97.721C180.028 96.742 182.494 81.498 185.542 63.846C188.59 46.194 190.901 31.568 190.678 31.345C190.455 31.121 177.023 37.928 160.828 46.469C144.634 55.011 130.762 62 130 62C129.238 62 115.366 55.011 99.172 46.469C82.977 37.928 69.545 31.121 69.322 31.345C69.099 31.568 71.41 46.194 74.458 63.846C77.506 81.498 79.972 96.742 79.938 97.721C79.903 98.699 68.958 110.075 55.615 123C42.272 135.925 31.452 146.639 31.571 146.81C31.689 146.98 46.988 149.347 65.569 152.069C84.15 154.791 99.455 157.127 99.582 157.259C99.708 157.392 106.451 171.112 114.567 187.75C122.682 204.388 129.627 218 130.001 218C130.375 218 137.368 204.275 145.541 187.5" />
    <glyph glyph-name="thumb-down"
      unicode="&#xEA6F;"
      horiz-adv-x="256" d="M104 238.883C91.482 237.451 75.834 233.503 64.149 228.827L58.797 226.685L56.417 229.727C52.423 234.83 47.813 236 31.692 236C18.884 236 16.967 235.77 12.962 233.75C9.702 232.106 7.894 230.298 6.25 227.038C4.002 222.58 4 222.535 4 170C4 117.465 4.002 117.42 6.25 112.962C7.894 109.702 9.702 107.894 12.962 106.25C16.986 104.221 18.849 104.002 31.962 104.022C44.323 104.041 47.159 104.343 50.899 106.04C53.318 107.137 55.386 107.915 55.494 107.768C55.602 107.62 64.211 83.425 74.626 54L93.562 0.5L100.16 0.573C115.286 0.741 127.963 11.988 130.985 27.921C131.543 30.865 132 46.487 132 62.636L132 92L179.462 92C224.821 92 227.167 92.091 232.389 94.044C245.736 99.038 253.28 113.415 249.652 126.943C248.241 132.207 248.269 132.487 250.498 135.443C256.965 144.018 257.87 154.939 252.932 164.821C251.244 168.198 248.611 171.853 247.079 172.943C244.367 174.875 244.308 175.119 244.78 182.473C245.385 191.903 243.44 197.546 237.335 204.073C233.156 208.541 233.033 208.855 233.803 213.101C235.674 223.405 231.193 232.621 222.064 237.25L216.641 240L164.071 239.87C135.157 239.799 108.125 239.355 104 238.883M218.981 225.464C220.101 224.344 221.423 222.013 221.918 220.285C223.091 216.196 220.229 210.175 215.342 206.447C213.411 204.974 212.206 203.421 212.665 202.995C213.124 202.57 216.017 201.505 219.092 200.629C232.391 196.841 236.611 187.06 230 175.346C228.35 172.422 227 169.835 227 169.596C227 169.356 229.137 168.434 231.75 167.546C240.031 164.732 244.003 159.625 243.996 151.8C243.991 146.303 241.277 141.848 235.789 138.332C233.43 136.82 231.312 135.452 231.083 135.291C230.854 135.131 232.116 133.195 233.889 130.989C235.661 128.783 237.588 125.611 238.171 123.94C240.381 117.599 236.454 109.366 229.647 106.071C225.486 104.057 223.926 104 172.684 104L120 104L119.976 68.75C119.961 48.268 119.52 31.615 118.922 29C117.105 21.051 110.611 14.162 104.505 13.705L101.764 13.5L80.924 72L60.084 130.5L60.292 172.5L60.5 214.5L68.5 217.686C72.9 219.438 80.216 221.831 84.757 223.004C101.682 227.376 109.453 227.829 164.723 227.66C215.814 227.503 216.99 227.456 218.981 225.464M46.429 222.429C47.816 221.041 48 214.9 48 170C48 125.1 47.816 118.959 46.429 117.571C44.127 115.269 19.873 115.269 17.571 117.571C16.184 118.959 16 125.1 16 170C16 214.9 16.184 221.041 17.571 222.429C19.873 224.731 44.127 224.731 46.429 222.429" />
    <glyph glyph-name="thumb-up"
      unicode="&#xEA70;"
      horiz-adv-x="256" d="M93.706 251.333C93.394 250.828 84.713 226.584 74.415 197.457C64.118 168.331 55.604 144.38 55.495 144.232C55.387 144.085 53.318 144.863 50.899 145.96C47.159 147.657 44.323 147.959 31.962 147.978C18.849 147.998 16.986 147.779 12.962 145.75C9.702 144.106 7.894 142.298 6.25 139.038C4.002 134.58 4 134.535 4 82C4 29.465 4.002 29.42 6.25 24.962C7.894 21.702 9.702 19.894 12.962 18.25C16.967 16.23 18.884 16 31.692 16C47.634 16 52.403 17.173 56.268 22.044L58.5 24.857L71.5 20.524C94.641 12.81 96.108 12.673 160.01 12.246L216.521 11.869L221.993 14.728C231.222 19.549 235.638 28.608 233.814 38.976C233.059 43.272 233.185 43.614 236.966 47.476C243.078 53.721 245.227 59.592 244.867 69.069L244.568 76.973L248.229 80.737C257.781 90.555 258.756 105.765 250.525 116.556C248.175 119.637 248.152 119.849 249.626 124.61C253.676 137.69 245.793 152.941 232.389 157.956C227.167 159.909 224.821 160 179.462 160L132 160L132 189.364C132 205.513 131.543 221.135 130.985 224.079C128.877 235.195 122.452 243.675 112.419 248.583C106.831 251.317 94.79 253.087 93.706 251.333M110.264 235.948C113.318 233.926 115.652 231.312 117.186 228.198C119.462 223.577 119.505 222.884 119.805 185.75L120.11 148L173.217 148L226.324 148L230.566 145.514C233.394 143.857 235.506 141.585 236.904 138.698C240.188 131.914 239.514 128.011 233.838 120.948C232.093 118.777 230.854 116.869 231.083 116.709C231.312 116.548 233.43 115.18 235.789 113.668C241.283 110.148 243.991 105.698 243.996 100.184C244.003 92.77 239.552 87.008 231.839 84.446C229.177 83.562 227 82.644 227 82.404C227 82.165 228.35 79.578 230 76.654C234.836 68.084 233.821 60.393 227.107 54.744C225.477 53.372 222.488 51.939 220.465 51.559C218.442 51.18 215.651 50.438 214.263 49.91L211.739 48.95L216.714 44.181C219.45 41.558 221.899 38.307 222.158 36.956C222.835 33.414 221.362 28.637 218.909 26.419C216.872 24.576 214.605 24.5 161.644 24.5C113.372 24.5 105.351 24.717 97.276 26.245C87.842 28.031 72.253 32.677 64.395 36.045L60 37.929L60 79.431L60 120.934L80.134 177.717C91.207 208.948 100.646 235.512 101.109 236.75C102.25 239.8 104.784 239.579 110.264 235.948M46.429 134.429C47.816 133.041 48 126.9 48 82C48 37.1 47.816 30.959 46.429 29.571C44.127 27.269 19.873 27.269 17.571 29.571C16.184 30.959 16 37.1 16 82C16 126.9 16.184 133.041 17.571 134.429C19.873 136.731 44.127 136.731 46.429 134.429" />
    <glyph glyph-name="sun"
      unicode="&#xEA72;"
      horiz-adv-x="256" d="M124 234L124 216L130 216L136 216L136 234L136 252L130 252L124 252L124 234M40.479 214.979L36.552 210.957L49.271 198.238L61.99 185.52L66.23 189.76L70.47 194L58 206.5C51.142 213.375 45.277 219 44.968 219C44.659 219 42.639 217.19 40.479 214.979M202 206.5L189.53 194L193.77 189.76L198.01 185.52L210.729 198.238L223.448 210.957L219.521 214.979C217.361 217.19 215.341 219 215.032 219C214.723 219 208.858 213.375 202 206.5M115.365 194.572C100.807 191.251 90.072 185.019 79.209 173.583C71.167 165.117 66.145 156.659 62.832 146C60.906 139.807 60.504 136.321 60.521 126C60.544 111.646 62.594 103.167 68.741 92C73.464 83.42 87.42 69.464 96 64.741C107.277 58.534 115.668 56.5 130 56.5C140.281 56.5 143.831 56.914 150 58.832C161.666 62.458 169.52 67.339 179.091 76.909C188.672 86.49 193.557 94.358 197.154 106C200.476 116.749 200.476 135.251 197.154 146C193.557 157.642 188.672 165.51 179.091 175.091C164.956 189.225 152.081 194.888 132.5 195.582C125.314 195.837 119.373 195.487 115.365 194.572M144.415 182.022C155.398 179.213 161.347 175.69 170.589 166.523C182.469 154.74 187.936 141.817 187.983 125.41C188.004 117.829 184.921 105.502 181.295 98.675C177.755 92.01 163.99 78.245 157.325 74.705C150.338 70.995 138.134 68 130 68C121.82 68 109.607 71.01 102.705 74.728C96.171 78.247 85.095 88.619 80.917 95.129C70.321 111.641 69.265 134.086 78.231 152.208C82.018 159.864 95.072 173.257 102.691 177.303C114.82 183.745 130.668 185.538 144.415 182.022M4 126L4 120L22 120L40 120L40 126L40 132L22 132L4 132L4 126M220 126L220 120L238 120L256 120L256 126L256 132L238 132L220 132L220 126M49 53.5L36.53 41L40.77 36.76L45.01 32.52L57.729 45.238L70.448 57.957L66.521 61.979C64.361 64.19 62.341 66 62.032 66C61.723 66 55.858 60.375 49 53.5M193.479 61.979L189.552 57.957L202.271 45.238L214.99 32.52L219.23 36.76L223.47 41L211 53.5C204.142 60.375 198.277 66 197.968 66C197.659 66 195.639 64.19 193.479 61.979M124 18L124 0L130 0L136 0L136 18L136 36L130 36L124 36L124 18" />
    <glyph glyph-name="forest"
      unicode="&#xEA73;"
      horiz-adv-x="256" d="M171.5 214.315C163.8 198.592 157.025 185.071 156.444 184.269C155.624 183.136 152.614 188.63 142.949 208.905C136.108 223.257 130.281 235 130 235C129.719 235 123.918 223.311 117.108 209.026C110.298 194.74 104.45 183.228 104.113 183.445C103.776 183.661 96.981 196.925 89.014 212.919C81.046 228.914 74.295 242 74.01 242C73.508 242 9 113.498 9 112.498C9 112.224 22.725 112 39.5 112C56.275 112 70 111.643 70 111.207C70 110.77 61.675 93.029 51.5 71.782C41.325 50.535 33 32.892 33 32.575C33 32.259 53.475 32 78.5 32L124 32L124 16L124 0L130 0L136 0L136 16L136 32L181.5 32C206.525 32 227 32.239 227 32.532C227 32.825 218.675 50.475 208.5 71.755C198.325 93.036 190 110.796 190 111.223C190 111.651 203.725 112 220.5 112C237.275 112 251 112.226 251 112.503C251 113.189 186.061 243.013 185.748 242.951C185.612 242.924 179.2 230.038 171.5 214.315M86.236 192.542L97.952 169.084L87.245 146.542L76.537 124L52.269 124C38.921 124 28 124.224 28 124.497C28 125.492 73.505 216 74.005 216C74.288 216 79.792 205.444 86.236 192.542M209.255 170.497C221.765 145.471 232 124.771 232 124.497C232 124.224 221.079 124 207.731 124L183.463 124L172.755 146.542L162.048 169.084L173.764 192.542C180.208 205.444 185.712 216 185.995 216C186.278 216 196.745 195.524 209.255 170.497M168.844 126.921C189.898 82.878 207.369 46.203 207.669 45.421C208.137 44.2 197.19 44 130 44C57.126 44 51.83 44.115 52.431 45.682C54.369 50.732 129.491 207 129.981 207C130.302 207 147.791 170.965 168.844 126.921" />
    <glyph glyph-name="fuel-2"
      unicode="&#xEA75;"
      horiz-adv-x="256" d="M10 242L10 236L14.25 235.993C20.675 235.982 34.232 232.417 41.178 228.91C44.921 227.021 50.34 222.868 54.908 218.387L62.455 210.985L49.993 198.493L37.53 186L41.771 181.758L46.012 177.517L74.248 205.752L102.483 233.988L98.237 238.234L93.991 242.48L82.427 230.917L70.864 219.353L64.002 226.427C52.887 237.885 40.474 244.234 24.5 246.634C19.55 247.377 14.262 247.989 12.75 247.993C10.055 248 10 247.881 10 242M81.745 198.245L44 160.49L44 82.245L44 4L150 4L256 4L256 107.462C256 210.901 256 210.926 253.849 216.675C251.053 224.146 244.065 231.084 236.474 233.924C231.101 235.934 229.158 236 175.208 236L119.49 236L81.745 198.245M233.5 222.119C238.258 219.934 240.39 217.704 242.462 212.746C243.81 209.519 244 197.14 244 112.532L244 16L150 16L56 16L56 85.745L56 155.489L90.245 189.745L124.489 224L176.995 223.978C225.799 223.958 229.782 223.827 233.5 222.119M140.962 205.75C137.702 204.106 135.894 202.298 134.25 199.038C129.558 189.733 132.609 178.462 140.962 174.25C145.332 172.046 146.132 172 180 172C213.868 172 214.668 172.046 219.038 174.25C230.95 180.257 230.95 199.743 219.038 205.75C214.668 207.954 213.868 208 180 208C146.132 208 145.332 207.954 140.962 205.75M214.429 194.429C215.293 193.564 216 191.571 216 190C216 183.987 216.079 184 180 184C143.921 184 144 183.987 144 190C144 196.013 143.921 196 180 196C208.537 196 213.064 195.793 214.429 194.429" />
    <glyph glyph-name="radiation"
      unicode="&#xEA76;"
      horiz-adv-x="256" d="M71.5 237.218C38.673 219.731 16.939 191.929 7.291 155.085C5.129 146.827 4.762 143.147 4.641 128.5L4.5 111.5L50.317 109.349C75.517 108.167 96.349 106.985 96.611 106.722C96.873 106.46 87.867 88.515 76.597 66.843C65.327 45.171 55.835 26.733 55.503 25.87C54.052 22.088 80.587 8.542 98.773 3.781C109.647 0.934 111.809 0.703 128.5 0.606C142.658 0.523 148.314 0.898 155 2.364C170.279 5.716 186.86 12.763 199.251 21.173L205.002 25.076L202.855 29.288C201.674 31.605 192.202 49.866 181.806 69.869C171.411 89.872 163.121 106.454 163.385 106.719C163.649 106.983 184.483 108.167 209.683 109.349L255.5 111.5L255.815 122C256.433 142.634 252.74 160.414 244.042 178.673C232.858 202.152 218.723 218.52 198.411 231.513C192.633 235.21 181.556 241.003 180.279 240.996C179.85 240.994 168.475 223.681 155 202.523C141.525 181.365 130.275 164.05 130 164.046C129.725 164.041 118.475 181.354 105 202.518C91.525 223.683 80.05 240.987 79.5 240.973C78.95 240.959 75.35 239.269 71.5 237.218M96.397 193.784C107.178 176.89 116 162.686 116 162.219C116 161.752 114.537 160.666 112.75 159.805C107.861 157.449 100.293 150.356 97.397 145.415C94.067 139.733 92.027 131.939 92.012 124.845L92 119.19L88.25 119.575C86.188 119.787 73.25 120.424 59.5 120.991C45.75 121.558 30.273 122.3 25.107 122.641L15.714 123.259L16.303 133.88C18.177 167.66 37.369 200.731 66.255 219.955C71.271 223.293 75.694 225.682 76.084 225.262C76.474 224.843 85.615 210.678 96.397 193.784M197.518 217.393C204.107 212.753 215.953 201.082 221.261 194C234.663 176.121 242.508 155.095 243.693 133.88L244.286 123.259L234.893 122.641C229.727 122.3 214.25 121.558 200.5 120.991C186.75 120.424 173.813 119.787 171.75 119.575L168 119.19L167.988 124.845C167.973 131.939 165.933 139.733 162.603 145.415C159.707 150.356 152.139 157.449 147.25 159.805C145.463 160.666 144 161.75 144 162.213C144 162.676 153.053 177.222 164.118 194.536L184.236 226.017L187.868 223.824C189.866 222.618 194.208 219.724 197.518 217.393M141.762 149.102C150.771 144.459 155.401 136.615 155.401 126C155.401 117.677 153.927 113.787 148.638 108.162C143.322 102.508 138.521 100.546 130 100.546C121.479 100.546 116.678 102.508 111.362 108.162C106.006 113.859 104.54 117.693 104.54 126C104.54 134.308 106.007 138.144 111.362 143.835C114.779 147.467 118.818 149.892 123.5 151.123C128.046 152.319 137.565 151.265 141.762 149.102M110.558 93.413C115.958 90.248 123.984 88.024 130 88.024C136.016 88.024 144.042 90.248 149.442 93.413C151.87 94.836 154.07 96 154.331 96C155.365 96 189.022 29.844 188.455 28.927C186.452 25.686 163.707 16.637 150.5 13.826C142.722 12.171 116.278 12.171 108.5 13.826C94.501 16.806 71 26.354 71 29.063C71 30.335 105.014 96 105.674 96C105.932 96 108.13 94.836 110.558 93.413" />
    <glyph glyph-name="gift"
      unicode="&#xEA77;"
      horiz-adv-x="256" d="M70.5 249.516C55.332 243.358 48.178 225.893 54.519 210.5C55.879 207.2 56.993 204.388 56.995 204.25C56.998 204.112 45.075 204 30.5 204L4 204L4 178L4 152L16 152L28 152L28 76L28 0L130 0L232 0L232 76L232 152L244 152L256 152L256 178L256 204L229.5 204C214.925 204 203.002 204.112 203.005 204.25C203.007 204.388 204.121 207.2 205.481 210.5C210.194 221.942 207.819 234.1 199.131 242.996C188.895 253.477 172.348 254.757 156.761 246.273C149.883 242.53 140.295 232.556 135 223.637C132.525 219.468 130.275 216.057 130 216.057C129.725 216.057 127.475 219.468 125 223.637C119.705 232.556 110.117 242.53 103.239 246.273C92.208 252.277 80.223 253.464 70.5 249.516M95.741 236.636C102.741 233.082 110.543 224.951 115.827 215.7C123.142 202.894 124.63 204 100.085 204C73.99 204 70.586 205.017 65.894 214.21C63.516 218.869 63.511 224.34 65.881 229.5C67.892 233.88 69.933 236.008 74.502 238.49C78.956 240.908 89.061 240.026 95.741 236.636M188.489 236.576C195.39 231.313 197.693 222.282 194.119 214.5C189.803 205.101 186.215 204 159.915 204C135.37 204 136.858 202.894 144.173 215.7C150.948 227.561 160.152 235.906 170 239.117C171.375 239.565 175.258 239.817 178.63 239.676C183.59 239.469 185.471 238.878 188.489 236.576M244 178L244 164L130 164L16 164L16 178L16 192L130 192L244 192L244 178M91 151.743C91 151.601 79.525 140.017 65.5 126L40 100.515L40 126.257L40 152L65.5 152C79.525 152 91 151.884 91 151.743M97.997 94.496L40.5 36.991L40.231 60.221L39.962 83.451L74.226 117.726L108.489 152L131.991 152L155.493 152L97.997 94.496M149.5 82L79.505 12L59.753 12L40 12L40 15.747C40 19.372 42.157 21.652 106.247 85.747L172.494 152L195.995 152L219.495 152L149.5 82M185.772 46.272L151.511 12L124.008 12L96.506 12L158.003 73.504L219.5 135.008L219.766 107.776L220.033 80.544L185.772 46.272M220 37.5L220 12L194.257 12L168.515 12L194 37.5C208.017 51.525 219.601 63 219.743 63C219.884 63 220 51.525 220 37.5" />
    <glyph glyph-name="time-clock"
      unicode="&#xEA78;"
      horiz-adv-x="256" d="M112 246.591C86.582 242.063 67.914 233.411 50.196 217.947C27.642 198.264 13.854 172.87 9.424 142.858C5.826 118.476 9.646 94.938 20.933 71.943C27.27 59.033 33.667 50.23 44.513 39.5C81.534 2.875 136.602 -6.3 183.048 16.42C196.005 22.758 205.442 29.519 215.963 40C234.591 58.556 245.536 79.703 250.043 105.849C252.408 119.563 252.514 129.783 250.437 143.769C243.761 188.729 212.778 226.274 170.05 241.182C153.567 246.933 127.534 249.358 112 246.591M124 218L124 200L130 200L136 200L136 218C136 227.9 136.338 235.998 136.75 235.996C137.162 235.994 141.627 235.323 146.672 234.504C194.423 226.76 230.043 191.388 238.441 143.374C239.295 138.493 239.995 133.937 239.997 133.25C239.999 132.296 235.735 132 222 132L204 132L204 126L204 120L222 120C231.9 120 239.998 119.662 239.996 119.25C239.979 116.05 236.658 99.104 234.99 93.704C224.412 59.454 196.546 31.588 162.296 21.01C156.896 19.342 139.95 16.021 136.75 16.004C136.338 16.002 136 24.1 136 34L136 52L130 52L124 52L124 34C124 24.1 123.662 16.002 123.25 16.004C120.05 16.021 103.104 19.342 97.704 21.01C82.89 25.585 67.731 34.258 55.723 45.027C49.124 50.945 38.8 63.907 34.239 72C27.679 83.64 22.25 100.607 20.559 114.75L19.931 120L37.966 120L56 120L56 126L56 132L38 132C24.265 132 20.001 132.296 20.003 133.25C20.012 136.799 23.411 153.198 25.521 159.874C37.698 198.396 71.737 227.599 112.437 234.441C116.872 235.187 121.287 235.842 122.25 235.898C123.856 235.992 124 234.515 124 218M78.617 195.004C76.481 193.389 74.505 191.838 74.225 191.558C73.945 191.278 85.707 175.063 100.363 155.524L127.01 120L155.505 120L184 120L184 126L184 132L158.508 132L133.015 132L108.451 164.75C94.94 182.762 83.574 197.599 83.193 197.72C82.812 197.842 80.753 196.619 78.617 195.004" />
    <glyph glyph-name="square-pin"
      unicode="&#xEA79;"
      horiz-adv-x="256" d="M116.758 250.985C108.119 249.614 93.512 244.417 85.04 239.699C73.944 233.52 58.756 218.115 53.269 207.473C42.996 187.548 41.425 166.158 48.716 145.5C54.027 130.452 67.697 106.282 81.606 87.348C97.185 66.14 127.666 30 129.973 30C131.086 30 143.16 43.262 155.011 57.5C189.083 98.436 210.035 133.819 214.682 158.272C218.992 180.951 211.568 205.726 195.27 223.051C186.388 232.493 180.856 236.687 170.367 241.934C154.211 250.015 133.102 253.579 116.758 250.985M150.287 237.072C163.039 233.782 173.073 227.895 183.603 217.524C191.27 209.973 193.428 207.112 196.823 200C209.549 173.337 204.957 149.09 179.97 111C167.03 91.276 147.068 65.333 134.454 51.848L130 47.086L125.546 51.848C113.203 65.043 90.252 94.91 78.937 112.5C70.751 125.226 62.7 141.182 59.273 151.469C56.988 158.329 56.6 161.177 56.613 171C56.637 190.793 61.865 203.047 76.461 217.524C92.553 233.484 110.706 240.546 133 239.519C138.225 239.278 146.004 238.177 150.287 237.072M124.92 194.924C110.064 192.622 99.21 179.016 100.253 164C102.031 138.392 132.382 126.57 150.555 144.406C171.589 165.049 154.132 199.451 124.92 194.924M139.616 180.638C154.447 170.963 147.682 148 130 148C115.886 148 107.236 163.964 115.117 175.466C120.59 183.453 131.705 185.799 139.616 180.638M52.666 72.802C50.81 69.886 39.8 52.312 28.199 33.75L7.108 0L129.999 0L252.89 0L229.336 37.75C216.38 58.512 205.248 76.066 204.598 76.757C203.656 77.758 202.446 77.4 198.672 75.007C194.753 72.521 194.098 71.696 194.901 70.25C195.435 69.287 203.728 55.9 213.329 40.5L230.786 12.5L180.393 12.241C152.677 12.098 107.314 12.098 79.587 12.241L29.173 12.5L47.568 41.92C59.753 61.407 65.651 71.716 65.039 72.454C64.53 73.066 62.298 74.588 60.078 75.836L56.042 78.104L52.666 72.802" />
    </font>
</defs>
</svg>
